<svg id="Layer_1" data-name="Layer 1" xmlns="http://www.w3.org/2000/svg" viewBox="0 0 566.13 138.68"><defs><style>.cls-1{fill:#0e1010;}.cls-2{fill:#767574;}.cls-3{fill:#525151;}.cls-4{fill:#8a8887;}.cls-5{fill:#63b0b8;}.cls-6{fill:#121414;}.cls-7{fill:#131515;}.cls-8{fill:#0b0e0e;}.cls-9{fill:#f8f8f8;}.cls-10{fill:#f9f8f8;}.cls-11{fill:#f7f7f6;}.cls-12{fill:#e9e9ea;}</style></defs><title>MOVING CRM</title><path class="cls-1" d="M359.29,357.59l-1.49,0c-.24,0-.52.07-.69,0a5.85,5.85,0,0,0-2.63-.45,55.73,55.73,0,0,1-5.61-1.14c-2.21-.43-4.37-1-6.54-1.57a12,12,0,0,1-3.88-1.71c-1.57-1.05-3.05-2.21-4.6-3.29s-2.5-2.73-3.61-4.21c-.47-.64-1-1.27-1.41-1.93a8.74,8.74,0,0,1-1.56-3.71,14.76,14.76,0,0,0-.68-2.79c-.35-1-.42-2.08-.67-3.1a1.19,1.19,0,0,0-.53-.77c-1.35-.95-2.67-1.94-4-2.88a11.61,11.61,0,0,1-1.29-1.34c-.08,0-.17,0-.19.07-1.25,2-3.42,2.88-5.18,4.25a4.3,4.3,0,0,1-1.67.57c-1.31.31-2.66.5-3.95.89a11.81,11.81,0,0,1-3.44.35h-5.21a2.79,2.79,0,0,1-1.17-.21,11.29,11.29,0,0,0-1.91-.45,25.65,25.65,0,0,1-3.45-.88.7.7,0,0,0-.49,0,19.62,19.62,0,0,1-3.91,1c-1.39.31-2.75.73-4.14,1a10.88,10.88,0,0,1-3.86,0c-2-.33-3.82-1-5.78-1.33a7.16,7.16,0,0,1-3.15-1.43c-1-.73-2-1.42-3-2.17a14.55,14.55,0,0,1-3-3.44c-.44-.62-.89-1.23-1.36-1.9-1,1.43-2,2.83-3,4.13a6.58,6.58,0,0,1-1.48,1.45c-.92.59-1.76,1.3-2.64,2a6.56,6.56,0,0,1-2.38,1c-1.34.35-2.73.51-4,.9a17.74,17.74,0,0,1-6.24.27,18,18,0,0,1-3.56-.79,23,23,0,0,1-2.69-.68,5.55,5.55,0,0,1-1-.45c-1.19-.83-2.4-1.66-3.55-2.54a9.44,9.44,0,0,1-1.55-1.94c-.41-.52-.76-1.1-1.16-1.63a5.68,5.68,0,0,1-1.18-2.69,4.59,4.59,0,0,0-.24-1c-.08-.22,0-.6-.34-.64s-.37.23-.53.41a36.78,36.78,0,0,1-6.15,5.18,42.53,42.53,0,0,1-4.79,3.15,25.75,25.75,0,0,1-5.43,2.1c-2,.53-4.12.91-6.15,1.47a18.18,18.18,0,0,1-5.69.76c-1.36-.06-2.73,0-4.1,0a18.22,18.22,0,0,1-3.43-.45c-1.51-.32-3-.7-4.53-1s-3.2-.79-4.79-1.2a1,1,0,0,0-.74,0,24.31,24.31,0,0,1-5.23,1.45,5.43,5.43,0,0,0-1.16.24,5.22,5.22,0,0,1-2.44.32H155.18a12.82,12.82,0,0,1-3.54-.38c-1.61-.45-3.26-.8-4.89-1.19a1.23,1.23,0,0,1-.2,0c-.61-.18-1.17-.8-1.67-.74s-1,.59-1.58.73c-1.69.42-3.41.75-5.09,1.24-2.23.64-4.49.3-6.74.31a13.86,13.86,0,0,1-2.59-.61c-1.29-.25-2.56-.6-3.84-.92a4.29,4.29,0,0,1-1.87-1.1c-.36-.34-.62-.39-1,0-1,1-2.31,1.17-3.58,1.52-1.44.41-2.93.52-4.33,1a2.53,2.53,0,0,1-1,.13h-20a2,2,0,0,1-.6,0c-2.11-.65-4.32-.92-6.43-1.58a4.7,4.7,0,0,1-1.47-.8c-1.13-.86-2.32-1.64-3.43-2.52a2,2,0,0,1-.47-.5c-.65-1-1.29-1.93-2-2.85a6.53,6.53,0,0,1-1.06-2.32c-.36-1.37-.57-2.78-1-4.13a3,3,0,0,1-.13-1,10.16,10.16,0,0,1-.15-2.27l0-.55c.46-2.53,1.11-5,1.76-7.51a3.35,3.35,0,0,1,.57-1c.7-1.07,1.5-2.07,2.25-3.12a11.16,11.16,0,0,1,2.5-2.1c.62-.49,1.28-.94,1.91-1.41a1.07,1.07,0,0,0,.51-1,22.29,22.29,0,0,1,.25-3.37c.17-1.61.27-3.23.49-4.83a14.38,14.38,0,0,1,.41-3.44,6.77,6.77,0,0,0,.19-2.17c0-1.2.25-2.37.38-3.54a21.25,21.25,0,0,1,.34-3.56.62.62,0,0,0,0-.19c-.06-2.13.52-4.2.58-6.33a13.14,13.14,0,0,1,.36-2.83,1.1,1.1,0,0,0,0-.4,52.49,52.49,0,0,1,.68-7.1c.1-.43.08-.85-.31-1.07-1.55-.88-2.27-2.48-3.31-3.8-.24-.31-.47-.64-.73-.93a1.91,1.91,0,0,1-.4-.79c-.52-1.68-.81-3.41-1.19-5.11a13,13,0,0,1-.54-2.32,18.78,18.78,0,0,1,.67-4c.26-1.49.74-2.94,1-4.42a3.87,3.87,0,0,1,.58-1.47c.81-1.17,1.62-2.36,2.51-3.47a7.3,7.3,0,0,1,1.72-1.51c.91-.55,1.71-1.24,2.58-1.85a5.09,5.09,0,0,1,2-.74c1.55-.31,3.09-.68,4.62-1.1a8.25,8.25,0,0,1,2.16-.33q7.6,0,15.21,0a14.72,14.72,0,0,1,4.52.52c1.67.52,3.39.85,5.1,1.21a4.38,4.38,0,0,1,1.54.89c.78.54,1.55,1.12,2.34,1.64,1.5,1,2.18,2.65,3.33,3.93a9.25,9.25,0,0,1,1.61,3.78c.54,1.74,1.06,3.48,1.61,5.22.47,1.51.86,3,1.32,4.57.75,2.48,1.52,4.94,2.28,7.41.14.47.23.94.38,1.52a4.62,4.62,0,0,0,1-1.76c.76-1.54,1.48-3.1,2.23-4.64l2-4.12c.91-1.87,1.77-3.77,2.73-5.62.71-1.38,1.32-2.81,2-4.21a38.29,38.29,0,0,1,2.76-4.11c.9-1.44,2.38-2.16,3.61-3.18a8.27,8.27,0,0,1,3.93-1.76c1.65-.3,3.28-.75,4.91-1.16a4.82,4.82,0,0,1,1.19-.13h15.4a9.53,9.53,0,0,1,2.54.44c1.24.33,2.49.66,3.76.88a7,7,0,0,1,3.17,1.27c.92.7,1.89,1.33,2.83,2a12.63,12.63,0,0,1,2.22,2.77c.25.32.5.7.76,1a6.62,6.62,0,0,1,1.1,2.71c.4,1.44.53,2.94,1.06,4.34a3.51,3.51,0,0,1,.12.78,19.63,19.63,0,0,1-.83,6.28c-.29,1.29-.7,2.55-.93,3.85a5.11,5.11,0,0,1-.23.76,1.44,1.44,0,0,0,.87,0,16.72,16.72,0,0,1,5.49-.67,38.44,38.44,0,0,1,5.68.23c.88.14,1.73.4,2.6.59a62.08,62.08,0,0,1,6.06,1.44,7.64,7.64,0,0,0,4.17-.15c1.94-.4,3.89-.68,5.86-.94s3.83-.27,5.69-.67c1.11-.24,2.23-.28,3.33-.46a10.77,10.77,0,0,1,4.31.58c1.21.29,2.44.55,3.67.81a5.07,5.07,0,0,1,2,1.13,29.34,29.34,0,0,1,3.37,2.6c.2.21.37.05.52-.05.45-.29.89-.59,1.31-.91.8-.58,1.59-1.18,2.39-1.77a2.76,2.76,0,0,1,1.09-.46c1.92-.46,3.84-1,5.77-1.37a6.61,6.61,0,0,1,1.9-.42,12.38,12.38,0,0,1-.19-3.19.9.9,0,0,1,0-.4,40.88,40.88,0,0,0,1-4.24,23.25,23.25,0,0,0,.72-3,6.33,6.33,0,0,1,1.26-2.67c.81-1.12,1.6-2.25,2.4-3.38a10.55,10.55,0,0,1,2.09-2.13c1.42-1.1,2.9-2.1,4.33-3.18a8.76,8.76,0,0,1,3.21-1.24c1.47-.39,3-.64,4.44-1,.92-.24,1.86-.41,2.78-.68s1.88.2,2.81.4c2,.43,3.94.83,5.88,1.35a7.63,7.63,0,0,1,2.95,1.36c1.15.94,2.38,1.8,3.61,2.62a12.47,12.47,0,0,1,2.82,3.2c.34.45.61,1,1,1.39a9.92,9.92,0,0,1,1.91,4.29c.35,1.48.68,3,1.06,4.44a10.42,10.42,0,0,1-.06,5.7c0,.12-.05.25-.1.45a20.18,20.18,0,0,0,2.22-.15,6.33,6.33,0,0,1,3.34.24c.89.29,1.81.37,2.7.63,0,0,.07,0,.09,0,2.62,1.12,5-.1,7.52-.61a11.78,11.78,0,0,1,2.36-.34h4a11.14,11.14,0,0,1,3,.48c1.37.38,2.78.58,4.15.94,2,.52,4.09.8,5.92,1.89a32.9,32.9,0,0,1,2.94,2.05.73.73,0,0,0,1,0,20.58,20.58,0,0,1,8.66-3.45c.9-.16,1.79-.47,2.68-.7,1.06-.27,2.14-.4,3.19-.68,3.17-.86,6.41-.51,9.62-.52a10.08,10.08,0,0,1,3.11.55,6.88,6.88,0,0,0,4.37,0c1.61-.52,3.27-.79,4.91-1.18,1-.25,2-.51,3.07-.75a3.51,3.51,0,0,1,.79-.06c.87,0,1.74,0,2.6,0a13,13,0,0,1,4.38.75c.67.18,1.35.31,2,.45.26.06.4-.09.55-.3,1-1.3,2-2.57,2.95-3.87s2.26-2.76,3.42-4.11c1.56-1.81,3.22-3.53,4.92-5.21s3.8-3.51,5.79-5.15,4.06-3.07,6.13-4.56a58.17,58.17,0,0,1,5.61-3.74,41,41,0,0,1,8.42-3.68c1.11-.32,2.26-.53,3.37-.84,1.41-.39,2.83-.67,4.25-1a20.4,20.4,0,0,1,5.65-.9,30.49,30.49,0,0,1,4.78.19c.94.2,1.85.49,2.79.67,1.55.31,3.1.68,4.62,1.11a10.88,10.88,0,0,1,3.43,1.52c.86.62,1.72,1.23,2.56,1.88a.65.65,0,0,0,.95,0c.88-.69,1.8-1.34,2.71-2a5.48,5.48,0,0,1,2-.9c2.31-.54,4.61-1.16,6.94-1.65,1.93-.41,3.91-.63,5.85-1,1.38-.28,2.8-.31,4.17-.71a10.12,10.12,0,0,1,2.27-.25c1.79-.08,3.53-.52,5.34-.53a10.62,10.62,0,0,0,2.46-.19c2.14-.53,4.31-.11,6.45-.33,2.56-.26,5.11.23,7.66,0a8.68,8.68,0,0,0,3.11.47c1.49.15,2.94.5,4.41.74,1.06.18,2.1.51,3.16.76,1.38.33,2.77.62,4.15,1a36.22,36.22,0,0,1,4.71,1.49,20.61,20.61,0,0,1,4,2.16,34.87,34.87,0,0,1,7.08,5.73c.58.68,1.06,1.44,1.59,2.17a5,5,0,0,0,.8,1c.59-.78,1.19-1.55,1.75-2.35a21.06,21.06,0,0,1,2.28-2.88A11.89,11.89,0,0,1,551,229c1.2-.89,2.37-1.82,3.63-2.6a12.07,12.07,0,0,1,3.46-1.68c2.31-.55,4.59-1.26,6.92-1.71a11.36,11.36,0,0,1,3.7-.62,4.53,4.53,0,0,1,.89.12,37,37,0,0,0,4.42,1.07c.87.18,1.71.49,2.59.64a3.45,3.45,0,0,1,1.44.87c.94.78,2,1.44,3,2.16a7.69,7.69,0,0,1,1.56,1.8c.48.68.92,1.39,1.46,2,.86,1,.92,2.25,1.24,3.41.45,1.58.69,3.22,1.16,4.81a1.33,1.33,0,0,1,0,.88,5.3,5.3,0,0,0-.21,2.27c.06,1.8-.23,3.58-.27,5.38a14.54,14.54,0,0,1-.19,3c-.26,1.08-.16,2.18-.41,3.25a.32.32,0,0,0,0,.09,15.58,15.58,0,0,1-.3,3.26,3.42,3.42,0,0,0,0,.8,4,4,0,0,0,.94-1.33q2.14-3.45,4.19-7c.9-1.54,1.79-3.09,2.72-4.6.81-1.29,1.54-2.63,2.38-3.91.74-1.13,1.4-2.32,2.1-3.48,1-1.7,2.14-3.34,3.23-5,1.3-2,2.69-3.86,4.09-5.75a12.83,12.83,0,0,1,3.73-3.68,13.22,13.22,0,0,0,1.92-1.42,8,8,0,0,1,3.53-1.5c1.53-.39,3.09-.7,4.62-1.09a4.69,4.69,0,0,1,1-.12l3.43,0a8.09,8.09,0,0,1,1,.08c2.08.52,4.15,1.08,6.23,1.56a5.59,5.59,0,0,1,2.16.94c.53.39,1.08.76,1.61,1.15a17.69,17.69,0,0,1,3.49,2.92c.83,1,1.58,2.12,2.34,3.2a4.54,4.54,0,0,1,1,1.49c.35,1.41.69,2.82,1.06,4.23a13.53,13.53,0,0,0,.74,3.06v2.6c-.29.3-.2.67-.18,1-.35,1.58-.68,3.17-1,4.75a45.22,45.22,0,0,1-2.11,6.4c-.79,2-1.49,4-2.22,6.06-.51,1.4-1.06,2.79-1.51,4.2-.85,2.65-1.83,5.25-2.61,7.92-.38,1.29-.76,2.6-1.26,3.86s-.67,2.29-1.06,3.42c-.56,1.63-1,3.28-1.53,4.93-.32,1.08-.55,2.18-.91,3.25-.57,1.7-.89,3.46-1.47,5.15-.39,1.16-.61,2.37-.91,3.56s-.68,2.55-1,3.84-.6,2.37-.81,3.57c-.28,1.6-.72,3.16-1,4.75a48,48,0,0,0-.83,5.48c0,.47-.28.87-.33,1.35-.17,1.68-.27,3.37-.45,5.05-.13,1.26-.13,2.51-.23,3.76a17.84,17.84,0,0,0,.33,3.65,15,15,0,0,1-.28,6c-.5,1.74-.84,3.53-1.24,5.31a5.24,5.24,0,0,1-.78,1.8c-.83,1.24-1.79,2.37-2.6,3.62a5.33,5.33,0,0,1-1.4,1.4q-2.09,1.54-4.23,3a6.65,6.65,0,0,1-2.45.75c-1.59.32-3.15.73-4.72,1.12a5.85,5.85,0,0,1-2.76,0c-1.25-.29-2.47-.7-3.75-.92a20.42,20.42,0,0,1-2.88-.68,7.17,7.17,0,0,1-2.14-1.23,40.87,40.87,0,0,1-3.88-2.91,11.18,11.18,0,0,1-1.74-2c-.63-1-1.35-1.88-2-2.8a8.5,8.5,0,0,1-1.51-3.32c-.4-1.8-.89-3.59-1.27-5.4-.24-1.16-.59-2.3-.82-3.46-.18-.91-.21-1.84-.3-2.77a6.18,6.18,0,0,0-.07-1.36c-.31-.1-.46.1-.64.24a12.89,12.89,0,0,1-5.19,2.35c-2.07.41-4.09,1.06-6.16,1.47a8.19,8.19,0,0,1-3.65-.06c-.84-.21-1.69-.37-2.52-.58-.32-.08-.38.13-.52.32-.62.85-1.3,1.66-1.87,2.55a11,11,0,0,1-3.32,3.24,18.37,18.37,0,0,0-2.16,1.58,3.69,3.69,0,0,1-1.33.66c-1.6.54-3.26.8-4.89,1.19-1.06.26-2.11.56-3.18.77-.58.11-1.17.16-1.76.22a25.89,25.89,0,0,0-3.62.53,12.51,12.51,0,0,1-2.37.21,31.68,31.68,0,0,1-5,.29,1.07,1.07,0,0,0-1.24.69,7.45,7.45,0,0,1-2.82,2.75c-.79.49-1.47,1.11-2.24,1.63a5.84,5.84,0,0,1-2.27.91c-1.56.29-3.1.67-4.62,1.1a7.24,7.24,0,0,1-4.2,0c-1.42-.42-2.86-.79-4.31-1.08a10.47,10.47,0,0,1-4.7-2c-1.19-.95-2.44-1.82-3.69-2.69a11.58,11.58,0,0,1-2.24-2.12,69.47,69.47,0,0,1-4.94-6.75c-.6-.95-1.15-1.93-1.77-2.86-.29.11-.39.36-.54.58a6.77,6.77,0,0,1-1.41,1.52l-2.8,2.06a7.59,7.59,0,0,1-3.41,1.5c-1.75.26-3.47.8-5.19,1.22a1.45,1.45,0,0,1-.48.11c-1.31-.09-2.58.31-3.88.24a4,4,0,0,0-2,.25,2.07,2.07,0,0,1-.89.08c-5.3,0-10.61,0-15.91,0a30.69,30.69,0,0,1-4.11-.62c-1.7-.27-3.3-1-5-1.17a3.62,3.62,0,0,1-1.7-.75c-1.21-.87-2.39-1.77-3.62-2.62a8.3,8.3,0,0,1-1.55-1.8.51.51,0,0,0-.81-.14,42.47,42.47,0,0,1-7.63,3.58,61.67,61.67,0,0,1-7.55,2c-1.26.28-2.5.61-3.75.88-.84.18-1.74.16-2.54.38-1.85.51-3.71.16-5.56.31a16.43,16.43,0,0,1-3.83-.44c-2.38-.35-4.66-1.17-7-1.58-.83-.15-1.66-.39-2.5-.63-.56,1.94-.88,3.87-1.36,5.76a12.29,12.29,0,0,1-2.55,5,21.57,21.57,0,0,0-1.51,2.08,17,17,0,0,1-4.43,4.37c-1.46,1-2.87,2.13-4.41,3a20.45,20.45,0,0,1-5.17,2.24c-1.9.52-3.82,1-5.76,1.41-1.22.26-2.42.62-3.65.89-.61.13-1.24.16-1.86.28a15.41,15.41,0,0,1-3.83.43ZM109.69,231.71h-8.2a5.59,5.59,0,0,0-1.28.15c-1.66.44-3.33.86-5,1.2a4.47,4.47,0,0,0-2.13,1c-.31.26-.66.45-1,.68a8.64,8.64,0,0,0-2.79,2.66c-.35.6-.83,1.12-1.23,1.69a2.9,2.9,0,0,0-.63,1.12c-.47,2.34-1.12,4.63-1.65,6.95a2.92,2.92,0,0,0,.09,1.57c.36,1.11.58,2.26.83,3.39a9.51,9.51,0,0,0,1.63,4.19c1,1.18,1.61,2.64,3.08,3.32a1.39,1.39,0,0,1,.83,1.42c0,.81-.23,1.59-.21,2.38a29.69,29.69,0,0,1-.37,3.65c-.11,1.21-.17,2.43-.36,3.65a39.24,39.24,0,0,0-.49,5.85,1,1,0,0,1-.06.39,11.15,11.15,0,0,0-.37,3.14c-.08,1.33-.4,2.62-.44,3.95s-.27,2.44-.3,3.67-.28,2.3-.39,3.45-.2,2.36-.36,3.54c-.26,1.94-.4,3.9-.5,5.86a2.75,2.75,0,0,1-1.6,2.63,17.21,17.21,0,0,0-2.68,1.87A7,7,0,0,0,82.29,307c-.25.39-.56.75-.79,1.13a6.11,6.11,0,0,0-1.29,2.44,32.93,32.93,0,0,1-1,4.35,7.65,7.65,0,0,0-.08,4.52c.18.55.26,1.18.44,1.72.48,1.47.33,3.2,1.62,4.37.07.07.08.19.14.26.82.95,1.32,2.14,2.39,2.88.77.52,1.52,1.07,2.25,1.63a4.6,4.6,0,0,0,1.79.84c1.64.36,3.29.7,4.93,1.12a7.89,7.89,0,0,0,1.94.34c5.77,0,11.54,0,17.31,0a3.76,3.76,0,0,0,1-.11c1.76-.46,3.51-1,5.3-1.27a5.78,5.78,0,0,0,2.92-1.34,2,2,0,0,1,3-.05,5.08,5.08,0,0,0,2.12,1.24c.86.11,1.65.46,2.51.59a10.15,10.15,0,0,1,1.93.44,10,10,0,0,0,5,.43c2.18-.37,4.31-1,6.47-1.49a4,4,0,0,0,1.59-.75,1.62,1.62,0,0,1,2.41,0,5,5,0,0,0,2,.91c1.35.3,2.71.56,4.06.93a10.64,10.64,0,0,0,2.82.51c6.5,0,13,0,19.51,0a2.65,2.65,0,0,0,.69,0c1.81-.41,3.61-.86,5.41-1.27a5.14,5.14,0,0,0,2.68-1.16c.33-.32.8-.19,1.23,0a34.11,34.11,0,0,0,3.71,1.06c1.16.3,2.34.48,3.49.8a22.18,22.18,0,0,0,6,1,4.42,4.42,0,0,1,1.57.22,2.32,2.32,0,0,0,1.66,0,2,2,0,0,1,.87-.19,16.19,16.19,0,0,0,5-.76c2.14-.59,4.32-1,6.46-1.58a19.91,19.91,0,0,0,5.94-2.71,74.6,74.6,0,0,0,6.77-5,33.78,33.78,0,0,0,3.56-3.72c.4-.47.73-.86,1.38-.78s.9.63,1.14,1.14a2.57,2.57,0,0,1,.11.48c.3,1.23.59,2.45.91,3.67a10,10,0,0,0,2,3.2,5.91,5.91,0,0,0,1.3,1.62c1,.65,1.88,1.36,2.82,2a2.38,2.38,0,0,0,.89.43c.81.17,1.61.38,2.41.59s1.48.27,2.22.51a9.77,9.77,0,0,0,4.52.42c1.53-.24,3-.75,4.54-1a6.8,6.8,0,0,0,4.08-1.85c.06-.07.18-.08.26-.14a10.48,10.48,0,0,0,2.67-2.48,53.17,53.17,0,0,0,3.18-4.8,1.35,1.35,0,0,1,1.41-.68,1.05,1.05,0,0,1,1.1.83,6.57,6.57,0,0,0,1,1.72c.72,1,1.47,2,2.21,3.07a3.34,3.34,0,0,0,.86,1c1.11.66,2.09,1.52,3.14,2.27a7.22,7.22,0,0,0,3,1.32c1.3.22,2.58.57,3.86.9a9.77,9.77,0,0,0,5.09.2c1.53-.42,3.08-.79,4.63-1.11a23.38,23.38,0,0,0,2.48-.7,1.82,1.82,0,0,1,.87-.15,31.42,31.42,0,0,1,5,1.11,21.33,21.33,0,0,0,7.9.54,33.31,33.31,0,0,0,5.31-1.2,5.73,5.73,0,0,0,2.4-.86c.61-.46,1.2-1,1.83-1.39a6.56,6.56,0,0,0,2-1.93,4.46,4.46,0,0,1,1.25-1.52,1.26,1.26,0,0,1,1.9.35,8.26,8.26,0,0,0,2.51,2.75c1.21.8,2.34,1.73,3.59,2.48.26.16.51.31.59.63q.63,2.67,1.27,5.32a12.28,12.28,0,0,0,1.76,4.8c1,1.38,2,2.82,3.06,4.2a7.67,7.67,0,0,0,1.35,1.32c.95.72,2,1.33,2.9,2.09a16.11,16.11,0,0,0,6.73,3c1.77.42,3.54.82,5.3,1.27a45.35,45.35,0,0,0,5.43,1.08,44.54,44.54,0,0,0,6.54.44c1.19,0,2.39-.12,3.57-.16a23.84,23.84,0,0,0,5-.81c1.31-.33,2.64-.55,4-.92,2.06-.59,4.19-.9,6.21-1.67a18.24,18.24,0,0,0,4.21-2.17c.73-.52,1.5-1,2.21-1.52a19.69,19.69,0,0,0,3.93-3.35c.91-1.18,1.84-2.35,2.66-3.59a13.84,13.84,0,0,0,1.4-2.27,33.19,33.19,0,0,0,1.13-4c.44-1.59.65-3.25,1.2-4.81a1.07,1.07,0,0,1,1.45-.8,5.61,5.61,0,0,1,1,.3,13.75,13.75,0,0,0,2.74.83c1.32.29,2.63.66,3.95,1a28,28,0,0,0,4.56.93,31.24,31.24,0,0,0,9.59-.61c1.69-.44,3.41-.81,5.11-1.21,1-.25,2.08-.43,3.08-.75,1.36-.42,2.71-.84,4-1.39a49.34,49.34,0,0,0,6.74-3.38,1.49,1.49,0,0,1,2.34.52,8.19,8.19,0,0,0,2.32,2.68,5.24,5.24,0,0,1,1,.76,9.85,9.85,0,0,0,5.1,2.23c1.2.22,2.4.49,3.58.82a7.73,7.73,0,0,0,2.24.37c6.22-.11,12.45.19,18.68-.16,1.43-.08,2.83-.3,4.24-.47,2.06-.26,4-1,6.09-1.37a1.74,1.74,0,0,0,.63-.3c1.19-.84,2.4-1.66,3.56-2.54a14.46,14.46,0,0,0,2.54-3.13,1.33,1.33,0,0,1,2.06-.28,1.94,1.94,0,0,1,.57.81,19,19,0,0,0,1.21,2.16,66.09,66.09,0,0,0,5.2,7.55A12.38,12.38,0,0,0,503.6,337c1.46,1.15,3,2.19,4.51,3.25a4.51,4.51,0,0,0,1.61.76l5.88,1.4a4.89,4.89,0,0,0,2.55.08c1.55-.43,3.14-.74,4.71-1.13a5.22,5.22,0,0,0,1.69-.54q1.41-.93,2.76-1.95c.5-.38,1.11-.7,1.37-1.27s.73-.94,1-1.46a1.48,1.48,0,0,1,1.17-.67c1.88-.25,3.78-.15,5.66-.4a36.21,36.21,0,0,1,3.74-.4c.82,0,1.54-.39,2.34-.41a18.49,18.49,0,0,0,3-.42c1.46-.29,2.88-.75,4.34-1a7.11,7.11,0,0,0,4.19-1.86c.09-.09.25-.12.34-.2,1-.85,2.28-1.42,3-2.57.5-.78,1.09-1.49,1.63-2.24a10.45,10.45,0,0,0,.82-1.36,1.64,1.64,0,0,1,2.24-1c.91.32,1.86.46,2.78.71a6.58,6.58,0,0,0,3.55,0c1.92-.52,3.85-1,5.78-1.4A11.89,11.89,0,0,0,579,320.5c.55-.42,1.15-.78,1.73-1.17a1.14,1.14,0,0,1,1.83.63,14.82,14.82,0,0,1,.33,2.46,19.75,19.75,0,0,0,.59,5,20.08,20.08,0,0,0,.57,2.41c.25.79.39,1.61.57,2.42a13.47,13.47,0,0,0,2.39,6c.84,1,1.55,2.15,2.32,3.22a3.57,3.57,0,0,0,.86.83c.95.68,1.85,1.42,2.83,2a6.93,6.93,0,0,0,2.32,1.29c1.75.35,3.46.87,5.2,1.24a5.18,5.18,0,0,0,2.35.26c2.05-.49,4.11-.95,6.17-1.45a2.38,2.38,0,0,0,1.14-.55c.31-.29.72-.47,1.06-.74a14.61,14.61,0,0,0,3.41-2.86c.38-.54.76-1.09,1.16-1.61a9.82,9.82,0,0,0,2.18-4.83,22,22,0,0,1,.77-3.28,12,12,0,0,0,.29-4.92,34.05,34.05,0,0,1-.43-4.17c0-1.4.31-2.78.31-4.17a48.4,48.4,0,0,1,.56-5.53c.18-1.48.46-2.94.68-4.41a12.81,12.81,0,0,1,.29-1.77c.42-1.4.58-2.85.87-4.26.46-2.24,1-4.45,1.55-6.68.21-.9.42-1.8.67-2.69.47-1.66,1-3.31,1.42-5,.51-1.82,1-3.65,1.5-5.46.73-2.48,1.54-4.93,2.27-7.41.44-1.47.9-2.92,1.38-4.37,1.08-3.31,2.15-6.62,3.32-9.91,1.33-3.75,2.68-7.5,4.12-11.21a19.41,19.41,0,0,0,1.27-4c.22-1.34.66-2.63.94-3.95a7.36,7.36,0,0,0,.3-3.61,38.52,38.52,0,0,1-1.15-4.83,8.47,8.47,0,0,0-1.68-3.75c-.48-.68-1-1.35-1.43-2a6.05,6.05,0,0,0-1.37-1.44c-.94-.67-1.92-1.3-2.83-2a7.77,7.77,0,0,0-3.52-1.49,32.13,32.13,0,0,1-3.76-.9,10.66,10.66,0,0,0-6.18,0,36,36,0,0,1-3.65.9,5.8,5.8,0,0,0-2.73,1.09,35.79,35.79,0,0,0-3.49,2.63,36.1,36.1,0,0,0-3.84,5c-1.38,1.93-2.68,3.93-4,5.93-1.19,1.83-2.28,3.73-3.41,5.6-1.38,2.3-2.74,4.61-4.15,6.9-.88,1.44-1.74,2.9-2.62,4.35-.79,1.3-1.64,2.56-2.38,3.9-1.16,2.12-2.5,4.14-3.7,6.25a1.1,1.1,0,0,1-1.52.53,1.12,1.12,0,0,1-.7-1.37c0-.33.2-.63.24-1,.16-1.44.2-2.89.43-4.34a38.82,38.82,0,0,0,.44-5.06c0-1.43.49-2.82.33-4.25a.31.31,0,0,1,0-.1c.42-1.45.07-3,.42-4.45.27-1.18,0-2.46.25-3.68a2.39,2.39,0,0,0-.07-1,40.15,40.15,0,0,1-1-4.14,9.3,9.3,0,0,0-2-4.59,13.26,13.26,0,0,0-2.67-2.78c-2.45-1.73-2.42-1.78-5.12-2.44-1.48-.36-3-.57-4.44-1a1.43,1.43,0,0,0-.89,0,32.71,32.71,0,0,1-3.2.71c-1.08.3-2.17.59-3.26.81a14.47,14.47,0,0,0-5.31,1.91c-1.55,1-3,2.15-4.54,3.24a2.94,2.94,0,0,0-.63.64c-1.41,2.08-3.26,3.87-4,6.37a.94.94,0,0,1-1,.7c-.54,0-1.07,0-1.4-.54a33.48,33.48,0,0,0-2.16-3.22,15.11,15.11,0,0,0-2.41-2.92,63.23,63.23,0,0,0-5.45-4,20.59,20.59,0,0,0-4.35-2.18c-1.8-.69-3.7-1-5.54-1.55s-3.67-.83-5.5-1.29a29.26,29.26,0,0,0-3.41-.6,25.77,25.77,0,0,1-3.35-.42,22,22,0,0,0-3.66-.24c-3-.23-6,.19-9,.18a.8.8,0,0,0-.39.07,3.06,3.06,0,0,1-1.76.26c-1.2-.06-2.38.23-3.58.26a8.43,8.43,0,0,0-1.87.2c-1.45.34-2.93.41-4.39.68-1.91.34-3.85.6-5.78.88-.6.08-1.13.34-1.74.4a23.36,23.36,0,0,0-2.73.5c-1.29.3-2.55.7-3.86.92a6.66,6.66,0,0,0-2.89.94c-1.24.9-2.48,1.78-3.7,2.69a1.21,1.21,0,0,1-1.7.08c-1.16-.82-2.31-1.66-3.48-2.47a8.13,8.13,0,0,0-2.48-1.24c-1.92-.48-3.86-.9-5.79-1.37a18.38,18.38,0,0,0-6.14-.67c-1.5.15-2.94.47-4.4.73s-2.82.72-4.23,1a44.57,44.57,0,0,0-6.57,1.9,39.2,39.2,0,0,0-6.21,3.12c-2.84,1.73-5.49,3.74-8.19,5.69a91.82,91.82,0,0,0-8.23,7c-1,.94-1.88,2.06-2.86,3-1.32,1.31-2.45,2.79-3.68,4.18a31.1,31.1,0,0,0-2.76,3.51c-.61.91-1.39,1.69-1.93,2.64-.45.79-.87,1-1.69.76-1.83-.61-3.72-.91-5.59-1.35a5.14,5.14,0,0,0-2.07-.22c-1.5.24-3,.39-4.49.77s-2.68.73-4,1a14.1,14.1,0,0,0-3.42,1,1,1,0,0,1-.78.05c-.71-.31-1.49-.32-2.21-.57a14.09,14.09,0,0,0-3.4-.59,9,9,0,0,1-2.18-.2,2.15,2.15,0,0,0-1.28,0,6,6,0,0,1-2,.18,15.12,15.12,0,0,0-2.85.36c-1.07.21-2.11.59-3.17.8-1.69.32-3.34.81-5,1.19a17.32,17.32,0,0,0-6.92,3.33,1.3,1.3,0,0,1-1.8,0c-.75-.59-1.5-1.2-2.29-1.75a10.49,10.49,0,0,0-2.14-1.25,30.1,30.1,0,0,0-4.29-1.24c-1.09-.23-2.21-.43-3.29-.72a20.24,20.24,0,0,0-6.72-.72,35.8,35.8,0,0,0-5.92,1.15,8.12,8.12,0,0,1-2.53.37,27.24,27.24,0,0,1-4.46-1,9.88,9.88,0,0,0-4.3-.4,15.31,15.31,0,0,1-3.46.29c-1-.06-1.35-.48-1.17-1.41a10.61,10.61,0,0,1,.33-1.46,9.34,9.34,0,0,0,.23-5.29c-.42-1.66-.89-3.32-1.19-5a4.8,4.8,0,0,0-.62-1.68c-.71-1.08-1.41-2.17-2.2-3.19a8.89,8.89,0,0,0-1.72-2.05c-1.38-1-2.75-2-4.14-2.92a3.14,3.14,0,0,0-1.26-.58,23.75,23.75,0,0,1-2.8-.66c-1.54-.4-3.12-.6-4.63-1.11a1.89,1.89,0,0,0-1.08,0c-2.31.57-4.63,1.13-7,1.65a6.48,6.48,0,0,0-2.28,1c-1,.71-2,1.39-3,2.13a11.54,11.54,0,0,0-2,1.67c-1.15,1.37-2.13,2.86-3.18,4.3a5.24,5.24,0,0,0-.85,1.78c-.52,2.09-.9,4.2-1.52,6.27a6.78,6.78,0,0,0-.22,2.46,7.52,7.52,0,0,0,.38,1.74c.4,1.26-.09,1.93-1.39,2a3.85,3.85,0,0,0-.88.11c-1.7.42-3.4.81-5.11,1.2-.58.14-1.16.22-1.73.41a14.32,14.32,0,0,0-3.68,2.35,6.79,6.79,0,0,0-1.88,1.6,1.15,1.15,0,0,1-1.86-.24,4.9,4.9,0,0,0-1.56-1.76c-.49-.33-1-.69-1.46-1a6.74,6.74,0,0,0-3.15-1.53,11.42,11.42,0,0,1-2.32-.53,10.9,10.9,0,0,0-3.4-.6c-.58,0-1.1.23-1.67.22a43.62,43.62,0,0,0-5.21.65c-1.41.14-2.81.43-4.22.51a29.25,29.25,0,0,0-4.47.9,6.82,6.82,0,0,1-3.42.18c-1.56-.44-3.14-.78-4.72-1.15-1-.22-2-.37-2.9-.66a14.25,14.25,0,0,0-4.2-.63,3.58,3.58,0,0,1-1.09,0c-1.53-.56-3,.15-4.53.14a9,9,0,0,0-2.61.49c-1.4.41-2.83.69-4.25,1a1,1,0,0,1-1.21-.48,1.21,1.21,0,0,1,.14-1.41c.59-.6.95-1.36,1.48-2a4.19,4.19,0,0,0,.92-1.95c.37-1.82.86-3.6,1.3-5.4a6.67,6.67,0,0,0,.13-2.27c-.25-2.07-1-4-1.38-6.09a2.09,2.09,0,0,0-.42-.79,10.79,10.79,0,0,0-.66-1c-.8-1-1.34-2.14-2.43-2.86-.67-.44-1.32-.92-1.94-1.41a5.69,5.69,0,0,0-2.16-1c-1.63-.44-3.31-.65-4.91-1.18a5.87,5.87,0,0,0-1.77-.2H167.17a5.78,5.78,0,0,0-1.94.34,6.52,6.52,0,0,1-.87.22c-1.39.28-2.8.53-4.17.91s-2.19,1.35-3.28,2a6.29,6.29,0,0,0-2,2,8.93,8.93,0,0,1-.57.8,11.07,11.07,0,0,0-1.38,2.06c-1.17,2.57-2.55,5-3.67,7.63-.86,2-1.91,3.86-2.82,5.83-1.28,2.77-2.67,5.49-3.94,8.27-.38.85-.86,1.65-1.32,2.46a1.08,1.08,0,0,1-1.2.52,1,1,0,0,1-.88-.82c-.51-2-1.12-3.89-1.71-5.82-1.25-4.09-2.45-8.19-3.67-12.29-.44-1.46-.85-2.93-1.31-4.38a7.23,7.23,0,0,0-1-2.48,14.94,14.94,0,0,1-1.06-1.45,9,9,0,0,0-2.88-2.84,11.76,11.76,0,0,1-1.23-.86,3.76,3.76,0,0,0-1.79-.79c-1.39-.27-2.8-.54-4.16-.94a14.14,14.14,0,0,0-4-.46Z" transform="translate(-76.33 -219.1)"/><path class="cls-2" d="M359.29,357.59h5.82v.19h-5.8Z" transform="translate(-76.33 -219.1)"/><path class="cls-3" d="M622.86,219.1a.15.15,0,0,0,0,.18l-3.43,0a.69.69,0,0,0,0-.13s0,0-.06-.07Z" transform="translate(-76.33 -219.1)"/><path class="cls-2" d="M76.52,316.75a10.16,10.16,0,0,0,.15,2.27c-.11,0-.2-.19-.34-.06v-2.2Z" transform="translate(-76.33 -219.1)"/><path class="cls-4" d="M76.52,316.75h-.19v-.6l.24,0Z" transform="translate(-76.33 -219.1)"/><path class="cls-5" d="M109.69,231.71h6.6a14.14,14.14,0,0,1,4,.46c1.36.4,2.77.67,4.16.94a3.76,3.76,0,0,1,1.79.79,11.76,11.76,0,0,0,1.23.86,9,9,0,0,1,2.88,2.84,14.94,14.94,0,0,0,1.06,1.45,7.23,7.23,0,0,1,1,2.48c.46,1.45.87,2.92,1.31,4.38,1.22,4.1,2.42,8.2,3.67,12.29.59,1.93,1.2,3.86,1.71,5.82a1,1,0,0,0,.88.82,1.08,1.08,0,0,0,1.2-.52c.46-.81.94-1.61,1.32-2.46,1.27-2.78,2.66-5.5,3.94-8.27.91-2,2-3.86,2.82-5.83,1.12-2.59,2.5-5.06,3.67-7.63a11.07,11.07,0,0,1,1.38-2.06,8.93,8.93,0,0,0,.57-.8,6.29,6.29,0,0,1,2-2c1.09-.7,2-1.7,3.28-2s2.78-.63,4.17-.91a6.52,6.52,0,0,0,.87-.22,5.78,5.78,0,0,1,1.94-.34h14.61a5.87,5.87,0,0,1,1.77.2c1.6.53,3.28.74,4.91,1.18a5.69,5.69,0,0,1,2.16,1c.62.49,1.27,1,1.94,1.41,1.09.72,1.63,1.9,2.43,2.86a10.79,10.79,0,0,1,.66,1,2.09,2.09,0,0,1,.42.79c.35,2.06,1.13,4,1.38,6.09a6.67,6.67,0,0,1-.13,2.27c-.44,1.8-.93,3.58-1.3,5.4a4.19,4.19,0,0,1-.92,1.95c-.53.64-.89,1.4-1.48,2a1.21,1.21,0,0,0-.14,1.41,1,1,0,0,0,1.21.48c1.42-.3,2.85-.58,4.25-1a9,9,0,0,1,2.61-.49c1.51,0,3-.7,4.53-.14a3.58,3.58,0,0,0,1.09,0,14.25,14.25,0,0,1,4.2.63c.95.29,1.94.44,2.9.66,1.58.37,3.16.71,4.72,1.15a6.82,6.82,0,0,0,3.42-.18,29.25,29.25,0,0,1,4.47-.9c1.41-.08,2.81-.37,4.22-.51a43.62,43.62,0,0,1,5.21-.65c.57,0,1.09-.23,1.67-.22a10.9,10.9,0,0,1,3.4.6,11.42,11.42,0,0,0,2.32.53,6.74,6.74,0,0,1,3.15,1.53c.49.34,1,.7,1.46,1a4.9,4.9,0,0,1,1.56,1.76,1.15,1.15,0,0,0,1.86.24,6.79,6.79,0,0,1,1.88-1.6,14.32,14.32,0,0,1,3.68-2.35c.57-.19,1.15-.27,1.73-.41,1.71-.39,3.41-.78,5.11-1.2a3.85,3.85,0,0,1,.88-.11c1.3,0,1.79-.71,1.39-2a7.52,7.52,0,0,1-.38-1.74,6.78,6.78,0,0,1,.22-2.46c.62-2.07,1-4.18,1.52-6.27a5.24,5.24,0,0,1,.85-1.78c1.05-1.44,2-2.93,3.18-4.3a11.54,11.54,0,0,1,2-1.67c1-.74,2-1.42,3-2.13a6.48,6.48,0,0,1,2.28-1c2.32-.52,4.64-1.08,7-1.65a1.89,1.89,0,0,1,1.08,0c1.51.51,3.09.71,4.63,1.11a23.75,23.75,0,0,0,2.8.66,3.14,3.14,0,0,1,1.26.58c1.39.95,2.76,1.95,4.14,2.92a8.89,8.89,0,0,1,1.72,2.05c.79,1,1.49,2.11,2.2,3.19a4.8,4.8,0,0,1,.62,1.68c.3,1.69.77,3.35,1.19,5a9.34,9.34,0,0,1-.23,5.29,10.61,10.61,0,0,0-.33,1.46c-.18.93.2,1.35,1.17,1.41a15.31,15.31,0,0,0,3.46-.29,9.88,9.88,0,0,1,4.3.4,27.24,27.24,0,0,0,4.46,1,8.12,8.12,0,0,0,2.53-.37,35.8,35.8,0,0,1,5.92-1.15,20.24,20.24,0,0,1,6.72.72c1.08.29,2.2.49,3.29.72a30.1,30.1,0,0,1,4.29,1.24,10.49,10.49,0,0,1,2.14,1.25c.79.55,1.54,1.16,2.29,1.75a1.3,1.3,0,0,0,1.8,0,17.32,17.32,0,0,1,6.92-3.33c1.67-.38,3.32-.87,5-1.19,1.06-.21,2.1-.59,3.17-.8a15.12,15.12,0,0,1,2.85-.36,6,6,0,0,0,2-.18,2.15,2.15,0,0,1,1.28,0,9,9,0,0,0,2.18.2,14.09,14.09,0,0,1,3.4.59c.72.25,1.5.26,2.21.57a1,1,0,0,0,.78-.05,14.1,14.1,0,0,1,3.42-1c1.36-.26,2.7-.65,4-1s3-.53,4.49-.77a5.14,5.14,0,0,1,2.07.22c1.87.44,3.76.74,5.59,1.35.82.27,1.24,0,1.69-.76.54-.95,1.32-1.73,1.93-2.64a31.1,31.1,0,0,1,2.76-3.51c1.23-1.39,2.36-2.87,3.68-4.18,1-1,1.83-2.1,2.86-3a91.82,91.82,0,0,1,8.23-7c2.7-1.95,5.35-4,8.19-5.69a39.2,39.2,0,0,1,6.21-3.12,44.57,44.57,0,0,1,6.57-1.9c1.41-.3,2.81-.75,4.23-1s2.9-.58,4.4-.73a18.38,18.38,0,0,1,6.14.67c1.93.47,3.87.89,5.79,1.37a8.13,8.13,0,0,1,2.48,1.24c1.17.81,2.32,1.65,3.48,2.47a1.21,1.21,0,0,0,1.7-.08c1.22-.91,2.46-1.79,3.7-2.69a6.66,6.66,0,0,1,2.89-.94c1.31-.22,2.57-.62,3.86-.92a23.36,23.36,0,0,1,2.73-.5c.61-.06,1.14-.32,1.74-.4,1.93-.28,3.87-.54,5.78-.88,1.46-.27,2.94-.34,4.39-.68a8.43,8.43,0,0,1,1.87-.2c1.2,0,2.38-.32,3.58-.26a3.06,3.06,0,0,0,1.76-.26.8.8,0,0,1,.39-.07c3,0,6-.41,9-.18a22,22,0,0,1,3.66.24,25.77,25.77,0,0,0,3.35.42,29.26,29.26,0,0,1,3.41.6c1.83.46,3.69.77,5.5,1.29s3.74.86,5.54,1.55a20.59,20.59,0,0,1,4.35,2.18,63.23,63.23,0,0,1,5.45,4,15.11,15.11,0,0,1,2.41,2.92,33.48,33.48,0,0,1,2.16,3.22c.33.58.86.55,1.4.54a.94.94,0,0,0,1-.7c.72-2.5,2.57-4.29,4-6.37a2.94,2.94,0,0,1,.63-.64c1.51-1.09,3-2.22,4.54-3.24a14.47,14.47,0,0,1,5.31-1.91c1.09-.22,2.18-.51,3.26-.81a32.71,32.71,0,0,0,3.2-.71,1.43,1.43,0,0,1,.89,0c1.45.48,3,.69,4.44,1,2.7.66,2.67.71,5.12,2.44a13.26,13.26,0,0,1,2.67,2.78,9.3,9.3,0,0,1,2,4.59,40.15,40.15,0,0,0,1,4.14,2.39,2.39,0,0,1,.07,1c-.24,1.22,0,2.5-.25,3.68-.35,1.48,0,3-.42,4.45a.31.31,0,0,0,0,.1c.16,1.43-.3,2.82-.33,4.25a38.82,38.82,0,0,1-.44,5.06c-.23,1.45-.27,2.9-.43,4.34,0,.34-.19.64-.24,1a1.12,1.12,0,0,0,.7,1.37,1.1,1.1,0,0,0,1.52-.53c1.2-2.11,2.54-4.13,3.7-6.25.74-1.34,1.59-2.6,2.38-3.9.88-1.45,1.74-2.91,2.62-4.35,1.41-2.29,2.77-4.6,4.15-6.9,1.13-1.87,2.22-3.77,3.41-5.6,1.29-2,2.59-4,4-5.93a36.1,36.1,0,0,1,3.84-5,35.79,35.79,0,0,1,3.49-2.63,5.8,5.8,0,0,1,2.73-1.09,36,36,0,0,0,3.65-.9,10.66,10.66,0,0,1,6.18,0,32.13,32.13,0,0,0,3.76.9,7.77,7.77,0,0,1,3.52,1.49c.91.71,1.89,1.34,2.83,2a6.05,6.05,0,0,1,1.37,1.44c.47.68.95,1.35,1.43,2a8.47,8.47,0,0,1,1.68,3.75,38.52,38.52,0,0,0,1.15,4.83,7.36,7.36,0,0,1-.3,3.61c-.28,1.32-.72,2.61-.94,3.95a19.41,19.41,0,0,1-1.27,4c-1.44,3.71-2.79,7.46-4.12,11.21-1.17,3.29-2.24,6.6-3.32,9.91-.48,1.45-.94,2.9-1.38,4.37-.73,2.48-1.54,4.93-2.27,7.41-.54,1.81-1,3.64-1.5,5.46-.46,1.66-1,3.31-1.42,5-.25.89-.46,1.79-.67,2.69-.5,2.23-1.09,4.44-1.55,6.68-.29,1.41-.45,2.86-.87,4.26a12.81,12.81,0,0,0-.29,1.77c-.22,1.47-.5,2.93-.68,4.41a48.4,48.4,0,0,0-.56,5.53c0,1.39-.31,2.77-.31,4.17a34.05,34.05,0,0,0,.43,4.17,12,12,0,0,1-.29,4.92,22,22,0,0,0-.77,3.28,9.82,9.82,0,0,1-2.18,4.83c-.4.52-.78,1.07-1.16,1.61a14.61,14.61,0,0,1-3.41,2.86c-.34.27-.75.45-1.06.74a2.38,2.38,0,0,1-1.14.55c-2.06.5-4.12,1-6.17,1.45a5.18,5.18,0,0,1-2.35-.26c-1.74-.37-3.45-.89-5.2-1.24a6.93,6.93,0,0,1-2.32-1.29c-1-.62-1.88-1.36-2.83-2a3.57,3.57,0,0,1-.86-.83c-.77-1.07-1.48-2.2-2.32-3.22a13.47,13.47,0,0,1-2.39-6c-.18-.81-.32-1.63-.57-2.42a20.08,20.08,0,0,1-.57-2.41,19.75,19.75,0,0,1-.59-5,14.82,14.82,0,0,0-.33-2.46,1.14,1.14,0,0,0-1.83-.63c-.58.39-1.18.75-1.73,1.17a11.89,11.89,0,0,1-4.66,2.32c-1.93.43-3.86.88-5.78,1.4a6.58,6.58,0,0,1-3.55,0c-.92-.25-1.87-.39-2.78-.71a1.64,1.64,0,0,0-2.24,1,10.45,10.45,0,0,1-.82,1.36c-.54.75-1.13,1.46-1.63,2.24-.73,1.15-2,1.72-3,2.57-.09.08-.25.11-.34.2a7.11,7.11,0,0,1-4.19,1.86c-1.46.28-2.88.74-4.34,1a18.49,18.49,0,0,1-3,.42c-.8,0-1.52.39-2.34.41a36.21,36.21,0,0,0-3.74.4c-1.88.25-3.78.15-5.66.4a1.48,1.48,0,0,0-1.17.67c-.29.52-.76.89-1,1.46s-.87.89-1.37,1.27q-1.35,1-2.76,1.95a5.22,5.22,0,0,1-1.69.54c-1.57.39-3.16.7-4.71,1.13a4.89,4.89,0,0,1-2.55-.08l-5.88-1.4a4.51,4.51,0,0,1-1.61-.76c-1.51-1.06-3.05-2.1-4.51-3.25a12.38,12.38,0,0,1-2.31-2.32,66.09,66.09,0,0,1-5.2-7.55,19,19,0,0,1-1.21-2.16,1.94,1.94,0,0,0-.57-.81,1.33,1.33,0,0,0-2.06.28,14.46,14.46,0,0,1-2.54,3.13c-1.16.88-2.37,1.7-3.56,2.54a1.74,1.74,0,0,1-.63.3c-2.06.34-4,1.11-6.09,1.37-1.41.17-2.81.39-4.24.47-6.23.35-12.46.05-18.68.16a7.73,7.73,0,0,1-2.24-.37c-1.18-.33-2.38-.6-3.58-.82a9.85,9.85,0,0,1-5.1-2.23,5.24,5.24,0,0,0-1-.76,8.19,8.19,0,0,1-2.32-2.68,1.49,1.49,0,0,0-2.34-.52,49.34,49.34,0,0,1-6.74,3.38c-1.32.55-2.67,1-4,1.39-1,.32-2.05.5-3.08.75-1.7.4-3.42.77-5.11,1.21a31.24,31.24,0,0,1-9.59.61,28,28,0,0,1-4.56-.93c-1.32-.3-2.63-.67-3.95-1a13.75,13.75,0,0,1-2.74-.83,5.61,5.61,0,0,0-1-.3,1.07,1.07,0,0,0-1.45.8c-.55,1.56-.76,3.22-1.2,4.81a33.19,33.19,0,0,1-1.13,4,13.84,13.84,0,0,1-1.4,2.27c-.82,1.24-1.75,2.41-2.66,3.59a19.69,19.69,0,0,1-3.93,3.35c-.71.53-1.48,1-2.21,1.52a18.24,18.24,0,0,1-4.21,2.17c-2,.77-4.15,1.08-6.21,1.67-1.31.37-2.64.59-4,.92a23.84,23.84,0,0,1-5,.81c-1.18,0-2.38.13-3.57.16a44.54,44.54,0,0,1-6.54-.44,45.35,45.35,0,0,1-5.43-1.08c-1.76-.45-3.53-.85-5.3-1.27a16.11,16.11,0,0,1-6.73-3c-.92-.76-2-1.37-2.9-2.09a7.67,7.67,0,0,1-1.35-1.32c-1.05-1.38-2-2.82-3.06-4.2a12.28,12.28,0,0,1-1.76-4.8q-.64-2.65-1.27-5.32c-.08-.32-.33-.47-.59-.63-1.25-.75-2.38-1.68-3.59-2.48a8.26,8.26,0,0,1-2.51-2.75,1.26,1.26,0,0,0-1.9-.35,4.46,4.46,0,0,0-1.25,1.52,6.56,6.56,0,0,1-2,1.93c-.63.43-1.22.93-1.83,1.39a5.73,5.73,0,0,1-2.4.86,33.31,33.31,0,0,1-5.31,1.2,21.33,21.33,0,0,1-7.9-.54,31.42,31.42,0,0,0-5-1.11,1.82,1.82,0,0,0-.87.15,23.38,23.38,0,0,1-2.48.7c-1.55.32-3.1.69-4.63,1.11a9.77,9.77,0,0,1-5.09-.2c-1.28-.33-2.56-.68-3.86-.9a7.22,7.22,0,0,1-3-1.32c-1-.75-2-1.61-3.14-2.27a3.34,3.34,0,0,1-.86-1c-.74-1-1.49-2-2.21-3.07a6.57,6.57,0,0,1-1-1.72,1.05,1.05,0,0,0-1.1-.83,1.35,1.35,0,0,0-1.41.68,53.17,53.17,0,0,1-3.18,4.8,10.48,10.48,0,0,1-2.67,2.48c-.08.06-.2.07-.26.14a6.8,6.8,0,0,1-4.08,1.85c-1.53.29-3,.8-4.54,1a9.77,9.77,0,0,1-4.52-.42c-.74-.24-1.49-.32-2.22-.51s-1.6-.42-2.41-.59a2.38,2.38,0,0,1-.89-.43c-.94-.68-1.86-1.39-2.82-2a5.91,5.91,0,0,1-1.3-1.62,10,10,0,0,1-2-3.2c-.32-1.22-.61-2.44-.91-3.67a2.57,2.57,0,0,0-.11-.48c-.24-.51-.48-1.05-1.14-1.14s-1,.31-1.38.78a33.78,33.78,0,0,1-3.56,3.72,74.6,74.6,0,0,1-6.77,5,19.91,19.91,0,0,1-5.94,2.71c-2.14.59-4.32,1-6.46,1.58a16.19,16.19,0,0,1-5,.76,2,2,0,0,0-.87.19,2.32,2.32,0,0,1-1.66,0,4.42,4.42,0,0,0-1.57-.22,22.18,22.18,0,0,1-6-1c-1.15-.32-2.33-.5-3.49-.8a34.11,34.11,0,0,1-3.71-1.06c-.43-.17-.9-.3-1.23,0a5.14,5.14,0,0,1-2.68,1.16c-1.8.41-3.6.86-5.41,1.27a2.65,2.65,0,0,1-.69,0c-6.51,0-13,0-19.51,0a10.64,10.64,0,0,1-2.82-.51c-1.35-.37-2.71-.63-4.06-.93a5,5,0,0,1-2-.91,1.62,1.62,0,0,0-2.41,0,4,4,0,0,1-1.59.75c-2.16.47-4.29,1.12-6.47,1.49a10,10,0,0,1-5-.43,10.15,10.15,0,0,0-1.93-.44c-.86-.13-1.65-.48-2.51-.59a5.08,5.08,0,0,1-2.12-1.24,2,2,0,0,0-3,.05,5.78,5.78,0,0,1-2.92,1.34c-1.79.3-3.54.81-5.3,1.27a3.76,3.76,0,0,1-1,.11c-5.77,0-11.54,0-17.31,0a7.89,7.89,0,0,1-1.94-.34c-1.64-.42-3.29-.76-4.93-1.12A4.6,4.6,0,0,1,86,330.3c-.73-.56-1.48-1.11-2.25-1.63-1.07-.74-1.57-1.93-2.39-2.88-.06-.07-.07-.19-.14-.26-1.29-1.17-1.14-2.9-1.62-4.37-.18-.54-.26-1.17-.44-1.72a7.65,7.65,0,0,1,.08-4.52,32.93,32.93,0,0,0,1-4.35,6.11,6.11,0,0,1,1.29-2.44c.23-.38.54-.74.79-1.13a7,7,0,0,1,1.81-1.95,17.21,17.21,0,0,1,2.68-1.87,2.75,2.75,0,0,0,1.6-2.63c.1-2,.24-3.92.5-5.86.16-1.18.26-2.37.36-3.54s.36-2.29.39-3.45.27-2.44.3-3.67.36-2.62.44-3.95a11.15,11.15,0,0,1,.37-3.14,1,1,0,0,0,.06-.39,39.24,39.24,0,0,1,.49-5.85c.19-1.22.25-2.44.36-3.65A29.69,29.69,0,0,0,92,263.4c0-.79.26-1.57.21-2.38a1.39,1.39,0,0,0-.83-1.42c-1.47-.68-2.13-2.14-3.08-3.32a9.51,9.51,0,0,1-1.63-4.19c-.25-1.13-.47-2.28-.83-3.39a2.92,2.92,0,0,1-.09-1.57c.53-2.32,1.18-4.61,1.65-6.95a2.9,2.9,0,0,1,.63-1.12c.4-.57.88-1.09,1.23-1.69a8.64,8.64,0,0,1,2.79-2.66c.33-.23.68-.42,1-.68a4.47,4.47,0,0,1,2.13-1c1.69-.34,3.36-.76,5-1.2a5.59,5.59,0,0,1,1.28-.15Zm204,44.86a.86.86,0,0,0-.14-.13,7.31,7.31,0,0,1,.22-2.28,4.62,4.62,0,0,0,.05-1.89,1.88,1.88,0,0,0-1.7-1.8,3.06,3.06,0,0,0-1-.1c-1.42.14-2.83.24-4.24.51-1.95.36-4,.38-5.92.69-1.34.22-2.71.25-4,.59a1.85,1.85,0,0,0-1.58,1.59,16.92,16.92,0,0,0-.3,2.36,4.42,4.42,0,0,0,.11.89,1.81,1.81,0,0,0,1.65,1.5,3.72,3.72,0,0,0,1.2,0,18.68,18.68,0,0,1,3.17-.19c1,0,1,0,1.07,1.08a4,4,0,0,1,0,.6c-.14,1.78-.46,3.55-.58,5.34a9.64,9.64,0,0,1-.18,2.08,13.87,13.87,0,0,0-.38,3.56c-.08,2.06-.55,4.08-.6,6.14a10.39,10.39,0,0,1-.24,2.28,23.8,23.8,0,0,0-.38,3.95,30.68,30.68,0,0,1-.31,3.07c-.23,1.25-.21,2.52-.36,3.77a24.28,24.28,0,0,0-.37,2.56c0,1.42-.21,2.84-.36,4.26-.19,1.77.22,3.08,2.59,3.09h5.5a4.5,4.5,0,0,0,1.28-.19,1.54,1.54,0,0,0,1.18-1.11,9.26,9.26,0,0,0,.48-2.44c0-1.14.2-2.25.27-3.38a11.46,11.46,0,0,1,.24-2.48,22.51,22.51,0,0,0,.37-3.56c.13-1.22.32-2.43.4-3.66a15.28,15.28,0,0,1,.24-2.78q1-3.91,2.34-7.72a45.64,45.64,0,0,1,3.4-7.63,17.14,17.14,0,0,1,4.43-5.46,8,8,0,0,1,7.41-1.45,2.25,2.25,0,0,1,1.48,1.24,10.41,10.41,0,0,1,1,3.83c.2,2.91-.39,5.76-.6,8.64-.08,1-.39,2-.38,3.06,0,1.24-.24,2.45-.27,3.68a11,11,0,0,1-.18,2c-.43,1.95-.4,3.95-.71,5.93a30.88,30.88,0,0,0-.28,5.37,12.36,12.36,0,0,0,.86,4.67,6.13,6.13,0,0,0,4.28,4,11.89,11.89,0,0,0,4.08,0,4.86,4.86,0,0,0,1.34-.37,12.26,12.26,0,0,0,5.25-4.31,40.17,40.17,0,0,0,3.42-5.84,2.9,2.9,0,0,0,.2-1.86,1.83,1.83,0,0,0-1.47-1.56,8.25,8.25,0,0,0-2-.13,3,3,0,0,0-2.71,1.57c-.18.29-.3.6-.47.89a10.29,10.29,0,0,1-1.36,2.1A1.7,1.7,0,0,1,340,310c.21-1.08.18-2.19.34-3.26s.14-2.19.28-3.27a20.1,20.1,0,0,0,.34-2.67c0-2,.51-4,.59-6a15.83,15.83,0,0,1,.18-2.48,38.22,38.22,0,0,0,.61-5.94,24.91,24.91,0,0,0-.65-7.92,9.55,9.55,0,0,0-1.28-2.9,10.46,10.46,0,0,0-3.4-3.15,15.92,15.92,0,0,0-5.12-1.82,26.38,26.38,0,0,0-4.78-.19,13.31,13.31,0,0,0-1.9.06,19.19,19.19,0,0,0-5.24,1.51,17.92,17.92,0,0,0-4.18,2.65C315.06,275.21,314.4,275.91,313.7,276.57ZM164,265.32h.31A20.23,20.23,0,0,0,164,268c0,2-.5,4-.56,6a20.39,20.39,0,0,1-.21,2.58,43.78,43.78,0,0,0-.48,4.56,12.13,12.13,0,0,1-.23,2.27,26.57,26.57,0,0,0-.4,4c-.2,2.21-.56,4.41-.69,6.63,0,1-.31,2-.35,3.06-.07,1.33-.2,2.66-.33,4-.17,1.82-.38,3.63-.58,5.44-.14,1.35-.3,2.7-.44,4.06a5.13,5.13,0,0,1-.41,1.33,1.79,1.79,0,0,1-1.13,1.05,10.85,10.85,0,0,1-3.7.62,5.59,5.59,0,0,0-1.58.17,1.72,1.72,0,0,0-1.32,1.36,13.21,13.21,0,0,0-.3,2c-.15,2.25.6,3,2.88,3h21a7.15,7.15,0,0,0,.8,0,2.11,2.11,0,0,0,2.18-2.33,4.71,4.71,0,0,1,.13-1c.49-1.94-.41-3.17-2.4-3.19a17.44,17.44,0,0,1-3.07-.28c-.55-.1-1.19-.23-1.44-.77a3.18,3.18,0,0,1-.29-1.83,28.27,28.27,0,0,0,.33-3.67c.11-2,.53-4,.6-6.05a8.21,8.21,0,0,1,.19-2,18,18,0,0,0,.39-3.86c.13-2.06.56-4.08.61-6.15a8.67,8.67,0,0,1,.2-2,24.19,24.19,0,0,0,.41-4.06c.19-2.22.57-4.42.68-6.64,0-1.07.33-2.1.36-3.16a26.7,26.7,0,0,1,.26-3.58c.43-2.62.53-5.28.87-7.91.24-1.84.28-3.72.5-5.56a14.63,14.63,0,0,1,.68-3.71,1.79,1.79,0,0,1,1-1.08,7.28,7.28,0,0,1,2.8-.63c.63,0,1.26,0,1.9,0a2.21,2.21,0,0,0,2.08-1.31,8.92,8.92,0,0,0,.33-3.63c-.06-1.21-1-1.8-2.47-1.8-5.43,0-10.87,0-16.31,0a2.68,2.68,0,0,0-2.69,1.69c-.46,1.12-1.09,2.14-1.56,3.24-.59,1.37-1.24,2.71-1.9,4.06-1.51,3.1-3.12,6.16-4.54,9.31-1.08,2.39-2.29,4.72-3.39,7.1-1.63,3.52-3.38,7-5.06,10.49-.71,1.46-1.36,2.95-2.07,4.42-1.3,2.69-2.63,5.37-3.93,8.06-1.08,2.25-2.14,4.5-3.22,6.75-.14.28-.32.54-.46.77-.21,0-.25-.11-.28-.2-.48-1.56-1-3.11-1.43-4.67-.58-1.93-1.14-3.88-1.72-5.82-.64-2.13-1.29-4.26-1.93-6.39q-.87-2.85-1.72-5.72l-1.92-6.39c-.56-1.88-1.12-3.75-1.69-5.63s-1.26-4.06-1.83-6.1c-.52-1.86-1.12-3.69-1.63-5.55-.64-2.37-1.49-4.68-2.11-7a2.85,2.85,0,0,0-3.07-2.38c-5.81,0-11.61,0-17.41,0a5,5,0,0,0-1.28.17,1.58,1.58,0,0,0-1.19,1.11,8.52,8.52,0,0,0-.51,2.93c.1,2,1.16,2.64,2.61,2.56a11.41,11.41,0,0,1,3.08.19c1,.23,1.47.59,1.52,1.42a38.87,38.87,0,0,1-.29,5.17c-.07,1.06-.36,2.1-.37,3.16,0,2.07-.43,4.09-.6,6.14s-.28,3.83-.57,5.74c-.24,1.54-.35,3.1-.52,4.65-.2,1.78-.31,3.57-.42,5.36,0,.77-.33,1.5-.31,2.26,0,2.11-.48,4.16-.59,6.25-.06,1.08-.15,2.18-.28,3.27a23.37,23.37,0,0,0-.34,2.76c0,2-.48,4-.59,6,0,1.15-.17,2.31-.29,3.46s-.36,2.36-.42,3.56a5.93,5.93,0,0,1-.47,1.73,1.42,1.42,0,0,1-.83.94,13.86,13.86,0,0,1-1.8.55,25,25,0,0,1-3,.22c-.85.06-1.73.27-2,1.21a7.06,7.06,0,0,0-.2,3.84A1.7,1.7,0,0,0,92.64,320a4.74,4.74,0,0,0,1.19.16h19a5,5,0,0,0,1.28-.18,1.55,1.55,0,0,0,1.25-1.17,10.85,10.85,0,0,0,.37-3,1.93,1.93,0,0,0-1.79-2.05,2.32,2.32,0,0,0-.69-.07,14,14,0,0,1-3-.27c-1.09-.14-1.65-.65-1.72-1.59a8.69,8.69,0,0,1,0-2.39c.41-2,.37-4,.69-5.94.28-1.65.26-3.36.46-5.05.17-1.45.34-2.9.42-4.35.06-1,.32-2,.38-3.07.08-1.39.24-2.77.35-4.16.07-.93.33-1.84.33-2.76,0-2.11.52-4.15.59-6.25a18.81,18.81,0,0,1,.18-2.48c.32-1.9.47-3.82.62-5.74a19.82,19.82,0,0,0,.32-2.26,19.09,19.09,0,0,1,.28-2.89c.1.09.2.14.23.22.44,1.43.88,2.86,1.31,4.29.48,1.62.94,3.26,1.43,4.88s1.07,3.42,1.59,5.13,1,3.45,1.56,5.15c.75,2.2,1.36,4.44,2,6.67.52,1.68,1.07,3.35,1.54,5.05.67,2.4,1.5,4.75,2.21,7.13.62,2.11,1.27,4.2,1.87,6.3.86,3,1.86,6,2.78,8.94a2.29,2.29,0,0,0,2.34,1.93c1.4.06,2.8.06,4.2,0a2.65,2.65,0,0,0,2.45-1.74c1.06-2.36,2.19-4.69,3.31-7,.49-1,1.07-2,1.5-3,1-2.4,2.23-4.68,3.31-7,.91-2,1.89-3.95,2.82-5.93s1.8-3.78,2.71-5.66c.62-1.29,1.26-2.56,1.88-3.85,1-2.1,2-4.21,3-6.3.43-.9.91-1.78,1.33-2.68q1.94-4.22,4-8.37C163.07,267.44,163.53,266.37,164,265.32Zm439.63,4v0c.18.4,0,.77-.11,1.15-.69,2.6-1.46,5.18-2,7.81s-1.15,5-1.69,7.49c-.75,3.51-1.48,7-2.13,10.55-.36,2-.82,3.91-1,5.89-.24,2.18-.69,4.33-.83,6.52a12.85,12.85,0,0,1-.22,2.07,28.12,28.12,0,0,0-.41,4.66c-.13,2.23,0,4.47-.05,6.7a24.3,24.3,0,0,0,.74,6.53c.65,2.58,1.86,4.76,4.43,5.92a4.57,4.57,0,0,0,3.69.11,4.64,4.64,0,0,0,2.63-3,12.86,12.86,0,0,0,.2-5.06,27.71,27.71,0,0,1-.4-3.76c.06-1.32.07-2.64.23-4,.21-1.65.29-3.3.55-4.95s.48-3.48.8-5.21c.37-2,.78-4,1.19-6,.27-1.34.55-2.68.86-4,.46-2,1-4,1.44-6s1-4.08,1.53-6.1c.75-2.79,1.54-5.57,2.33-8.36.24-.86.59-1.69.79-2.56.37-1.59,1-3.11,1.4-4.68s.93-3.25,1.51-4.84c.71-2,1.27-4,2-6,.57-1.66,1.17-3.32,1.71-5,.67-2.05,1.41-4.08,2.17-6.09.65-1.71,1.25-3.43,2-5.12A12.31,12.31,0,0,0,628,240a5.38,5.38,0,0,0-3.18-5.59,9.45,9.45,0,0,0-5.17-.61,4,4,0,0,0-2.63,1.28,17.19,17.19,0,0,0-1.39,1.56c-1.24,1.65-2.34,3.4-3.5,5.1-1,1.52-2,3.09-2.91,4.65q-2,3.32-4,6.65c-1.41,2.37-2.84,4.74-4.24,7.11-1.94,3.25-4,6.47-5.88,9.72-1.79,3-3.72,5.91-5.58,8.87-2.25,3.57-4.68,7-7.09,10.49a87.7,87.7,0,0,1-5.44,7,35.33,35.33,0,0,1-5.68,5.59,7.59,7.59,0,0,1-2.65,1.54c-.66.16-.71.2-.81-.41a19.94,19.94,0,0,1-.53-3.85,7.18,7.18,0,0,0-.1-1.79,5.23,5.23,0,0,1,0-1.89c.34-2.11,0-4.25.41-6.37a30.08,30.08,0,0,0,.2-3.58c.15-1.85.28-3.7.48-5.55.19-1.68.32-3.36.52-5.05s.29-3.37.41-5c.06-.81.33-1.57.32-2.37,0-2,.46-4,.59-6,.07-1.15.15-2.31.3-3.46s.34-2.57.39-3.86A10,10,0,0,1,571,252a22.52,22.52,0,0,0,.41-4.55,50.94,50.94,0,0,0,.27-6.18,1.53,1.53,0,0,1,.1-.59c.72-1.94-1.07-3.78-2.94-3.76a13.46,13.46,0,0,0-3.23.53,12.72,12.72,0,0,0-5.44,2.78,6.84,6.84,0,0,0-2.17,3.5c-.23.9-.51,1.79-.82,2.67-1,2.72-1.86,5.47-2.75,8.21-.67,2.05-1.34,4.1-2,6.15l-2.26,6.69c-.49,1.45-1,2.9-1.45,4.35-.86,2.55-1.74,5.09-2.6,7.64-.79,2.32-1.56,4.65-2.34,7a14.52,14.52,0,0,0-.61,1.79,22,22,0,0,1-.87,2.64c-.48,1.55-1.06,3.07-1.56,4.62s-.94,3.25-1.53,4.84c-.76,2-1.34,4.09-2.06,6.13-.8,2.28-1.47,4.62-2.21,6.93-.27.85-.43,1.74-.78,2.57a.61.61,0,0,1-.65.45,5.26,5.26,0,0,0-1.49.06,10.61,10.61,0,0,1-3.17.27c-1,0-2,0-3,0a5.69,5.69,0,0,0-3.78,1.3,3.4,3.4,0,0,0-.83,3.58,2.33,2.33,0,0,0,2.53,1.54c1.8,0,3.6,0,5.4,0a9.26,9.26,0,0,0,1.9,0c1.73-.37,3.51,0,5.26-.36a29.85,29.85,0,0,1,3.17-.3,15.16,15.16,0,0,0,2.67-.3,23.39,23.39,0,0,1,2.64-.42,5.47,5.47,0,0,0,3.92-1.94,2.94,2.94,0,0,0,.28-3.19,3.32,3.32,0,0,0-3.13-1.3c-1.41.52-2.95.33-4.41.66a1.37,1.37,0,0,1-.42-.06,20.64,20.64,0,0,1,1-3.27c.87-2.78,1.83-5.54,2.75-8.31.52-1.58,1-3.16,1.53-4.74.91-2.74,1.84-5.48,2.76-8.22.65-1.95,1.29-3.91,1.94-5.86,1-2.91,1.91-5.81,2.91-8.7a13,13,0,0,1,1.09-2.89c.23.79-.13,1.46-.12,2.15.12,6.19-.33,12.39.47,18.56a49.45,49.45,0,0,0,1.42,7.83,16.85,16.85,0,0,0,3.61,6.9,8.76,8.76,0,0,0,5,2.74,8.92,8.92,0,0,0,5.72-.91,25.83,25.83,0,0,0,6.88-5.37q1.82-1.92,3.55-3.92c1.33-1.54,2.56-3.14,3.78-4.75,1.09-1.43,2.19-2.85,3.21-4.33s1.9-2.8,2.9-4.16c1.54-2.09,2.84-4.35,4.29-6.5,1-1.52,2-3,3-4.62,1.17-2.05,2.44-4,3.65-6.07A9.26,9.26,0,0,1,603.65,269.34ZM224,278.55c1.54.07,3-.31,4.52-.23a1.16,1.16,0,0,1,1.12.64c.59,1.15,1.22,2.28,1.77,3.46,1.57,3.36,3.24,6.69,4.6,10.15.75,1.92,1.48,3.85,2.13,5.8.47,1.45.89,2.92,1.41,4.35.57,1.6,1,3.24,1.47,4.86s.93,3.33,1.39,5c.51,1.83,1.11,3.63,1.49,5.48a2.23,2.23,0,0,0,2.47,2.07c1,0,2.07,0,3.1,0a2.54,2.54,0,0,0,2.29-1.17c.76-1.18,1.53-2.34,2.27-3.53q2.16-3.53,4.3-7.07l3.1-5.12c1.38-2.3,2.76-4.62,4.13-6.93,1-1.66,2-3.31,2.91-5,1-1.86,2-3.75,3-5.64,1.06-2.11,2.15-4.21,2.27-6.64,0-.39.18-.52.56-.5a5,5,0,0,0,1.5,0,15.67,15.67,0,0,1,3-.15.47.47,0,0,1,.56.41,3.2,3.2,0,0,1,.11,1.19,11.56,11.56,0,0,0-.17,1.18c0,1.23-.3,2.43-.36,3.66a14.19,14.19,0,0,1-.27,3,14.49,14.49,0,0,0-.34,3.06c-.06,2-.51,3.95-.59,5.95a17.51,17.51,0,0,1-.25,3c-.39,1.8-.38,3.63-.59,5.44-.14,1.22-.26,2.44-.37,3.66a16.62,16.62,0,0,0,.7,7.67c1,2.46,3,4.46,5.84,4.27.3,0,.6,0,.9,0a6.84,6.84,0,0,0,4.46-1.46,16.36,16.36,0,0,0,4.44-4.93c.47-.76.86-1.57,1.35-2.32a8.35,8.35,0,0,0,1.24-2.71,2,2,0,0,0-1.76-2.68c-2.8-.29-3.8-.05-4.89,2.31a1.11,1.11,0,0,1-.12.27c-.51.59-.68,1.43-1.35,1.91a.46.46,0,0,1-.13-.51,10.4,10.4,0,0,0,.27-2.67,18.47,18.47,0,0,1,.25-2.37,24.05,24.05,0,0,0,.39-3.86c.12-2,.54-4,.6-6.05a9.09,9.09,0,0,1,.19-1.88,22.4,22.4,0,0,0,.42-4.16c.13-2,.46-4,.62-5.95s.41-3.69.59-5.53a38,38,0,0,1,.48-4.26,4.43,4.43,0,0,0-.06-2,1.83,1.83,0,0,0-1.47-1.45,13,13,0,0,0-4.45.2c-1.15.12-2.29.35-3.45.45-.82.07-1.65.12-2.47.26s-1.9.29-2.86.39a5.24,5.24,0,0,0-3.39,1.15c-.29-.09-.41-.35-.59-.54a6.9,6.9,0,0,0-3.55-1.88,18.42,18.42,0,0,0-3.78-.16,6.53,6.53,0,0,0-3.9,1.32,2.08,2.08,0,0,0-.85,2.46,3.92,3.92,0,0,0,.39,1,5.17,5.17,0,0,1,.66,2.28,15.34,15.34,0,0,1-.62,5.52c-.39,1.51-.86,3-1.39,4.46-.93,2.6-2,5.13-3.17,7.63-1.27,2.7-2.67,5.35-4,8a4.55,4.55,0,0,1-.94,1.31c-.3-1.25-.63-2.4-.85-3.57-.45-2.29-1.08-4.54-1.66-6.79-.46-1.77-1-3.5-1.54-5.26-.76-2.62-1.62-5.2-2.54-7.76-1.08-3-2.27-6-3.41-8.94a2.4,2.4,0,0,0-2.38-1.7,13.69,13.69,0,0,0-3.57.3c-2.32.47-4.68.49-7,.89-1.37.24-2.77.3-4.13.6a1.86,1.86,0,0,0-1.6,1.68,13,13,0,0,0-.07,1.4,2.6,2.6,0,0,1-.2,1.23c-.36-.05-.49-.35-.7-.54a19.47,19.47,0,0,0-5.41-3.5,25.46,25.46,0,0,0-4.72-1.52,20.54,20.54,0,0,0-4.34-.54h-4.5a11.27,11.27,0,0,0-2.66.34,32.56,32.56,0,0,0-4.21,1.2,25.32,25.32,0,0,0-6.46,3.67,35.2,35.2,0,0,0-5,4.86,28.4,28.4,0,0,0-4.88,8.3c-1.35,3.41-1.63,7-1.88,10.65a22.67,22.67,0,0,0,.27,2.87,21.07,21.07,0,0,0,1.52,6.78,17,17,0,0,0,4.59,6.43,19.76,19.76,0,0,0,6.85,4,23.16,23.16,0,0,0,7.41,1.35c1.57,0,3.13,0,4.7,0a12.56,12.56,0,0,0,2.67-.3,30.36,30.36,0,0,0,5.1-1.66,25.86,25.86,0,0,0,5.36-3.2,32.48,32.48,0,0,0,7.66-8.6,25.19,25.19,0,0,0,2.15-4.47,30.87,30.87,0,0,0,1.51-5.89,34.65,34.65,0,0,0,.23-5.58,22.22,22.22,0,0,0-.59-5.63,18.32,18.32,0,0,0-2.34-5.8A1.83,1.83,0,0,1,224,278.55Zm170.9,20.85c0,1.33,0,2.33,0,3.33a17,17,0,0,0,.33,2.76c.26,1.13.56,2.25.91,3.36a16.1,16.1,0,0,0,4.92,7.26,15.86,15.86,0,0,0,6,3.16,19,19,0,0,0,6.09.86c1.17,0,2.34,0,3.5,0a23.74,23.74,0,0,0,3.26-.37c1.36-.26,2.7-.65,4.05-1a27.05,27.05,0,0,0,4.39-1.59c1.41-.64,2.82-1.32,4.19-2.07a51.86,51.86,0,0,0,6.55-4.17,71.78,71.78,0,0,0,7-5.94,75.22,75.22,0,0,0,5.83-6.41c1.47-1.85,2.78-3.81,4.09-5.78a6,6,0,0,0,1.14-2.73,2.76,2.76,0,0,0-2-3.14,3.93,3.93,0,0,0-4.57,2.12,15.79,15.79,0,0,1-2.61,4.1,63.24,63.24,0,0,1-7.37,7.45,60.65,60.65,0,0,1-8.27,6.08c-.76.46-1.53.93-2.34,1.32a32.46,32.46,0,0,1-6.95,2.65,16.75,16.75,0,0,1-3.72.57,25.43,25.43,0,0,1-4.08-.22,10.88,10.88,0,0,1-5.29-2.14,8.57,8.57,0,0,1-3-6.5,22.61,22.61,0,0,1,.65-6.44,40.75,40.75,0,0,1,2-6.34,67.48,67.48,0,0,1,3.8-7.67c1.19-2,2.39-4.06,3.73-6a93,93,0,0,1,6.31-8.23c1.5-1.73,3-3.46,4.67-5,2.05-2,4.18-3.88,6.41-5.66a50.14,50.14,0,0,1,5.41-3.75,29.1,29.1,0,0,1,7.14-3.23,9.35,9.35,0,0,1,4.58-.47,4.57,4.57,0,0,1,2.44,1.45,8,8,0,0,1,1.61,3.17,28.71,28.71,0,0,1,.65,4.12,16.09,16.09,0,0,1-.2,4.34,26.29,26.29,0,0,1-2,7.36,18.71,18.71,0,0,1-4.13,6.15,8.78,8.78,0,0,1-4.75,2.54,9.1,9.1,0,0,1-2.45-.08,4.82,4.82,0,0,1-2.79-1.43,5.7,5.7,0,0,1-1.6-4.95,20.3,20.3,0,0,1,2.55-7.5c.29-.52.59-1.05.85-1.58a3.59,3.59,0,0,0,.15-2.92c-.47-1.18-1.52-1.8-3.23-1.54a4.34,4.34,0,0,0-3.05,2.36c-.45.74-.87,1.5-1.24,2.27a20.84,20.84,0,0,0-2.38,9.58A12.08,12.08,0,0,0,436,281.9a10.2,10.2,0,0,0,5.16,2.65c1.48.25,3,.78,4.49.21a1.48,1.48,0,0,1,.3,0,9.79,9.79,0,0,0,2.72-.58,16.5,16.5,0,0,0,6-3.81,21.44,21.44,0,0,0,3.91-5.15,35.48,35.48,0,0,0,3.23-9,45.57,45.57,0,0,0,1.28-8.35,38.89,38.89,0,0,0-.11-6.29,31,31,0,0,0-1-5.16,14.73,14.73,0,0,0-3.36-6,11.75,11.75,0,0,0-6.25-3.45,24.9,24.9,0,0,0-5.39-.18,11.37,11.37,0,0,0-2.66.31,42.43,42.43,0,0,0-5.91,1.72,46.87,46.87,0,0,0-7.19,3.6c-1.5.93-3,1.91-4.37,3a76.08,76.08,0,0,0-7.75,6.58,99.77,99.77,0,0,0-10,11.27,92.06,92.06,0,0,0-6,8.86,56.81,56.81,0,0,0-3.81,7.45c-.77,1.94-1.52,3.89-2.1,5.9-.54,1.86-1,3.73-1.46,5.6a25,25,0,0,0-.62,3.33A30.89,30.89,0,0,0,394.93,299.4ZM474,280.54c-.18.75-.31,1.4-.51,2-.9,2.92-1.86,5.82-2.74,8.74-.64,2.1-1.34,4.18-2,6.28-.82,2.77-1.79,5.49-2.69,8.23l-2.4,7.29c-.24.73-.31.8-1.08.64a12.87,12.87,0,0,0-2.48-.15c-.8,0-1.59-.11-2.38-.18a7.65,7.65,0,0,0-4.68.56,3.32,3.32,0,0,0-1.71,3,3.22,3.22,0,0,0,2.81,2.83,16.38,16.38,0,0,0,3,.24c5.1,0,10.21,0,15.31,0a4.09,4.09,0,0,0,.7,0c2-.32,4.1-.16,6.14-.51a3.84,3.84,0,0,0,2.94-2,3.11,3.11,0,0,0-.18-3.24,2.66,2.66,0,0,0-2.79-1.18,18.43,18.43,0,0,0-3,.37.53.53,0,0,1-.57-.08,1.54,1.54,0,0,1,.1-.67c.53-1.79,1-3.58,1.58-5.36.49-1.61,1-3.23,1.55-4.83.83-2.45,1.61-4.92,2.54-7.34.56-1.45,1-2.94,1.55-4.41.46-1.28,1-2.54,1.45-3.81.87-2.37,1.72-4.74,2.58-7.11.07-.19.11-.4.38-.39a23.65,23.65,0,0,0,3.65-.46c.5-.06.69.15.77.65.17,1,.38,2.09.63,3.12.48,2,1,4.07,1.51,6.09s1.05,3.71,1.64,5.54c.88,2.78,1.77,5.57,2.84,8.29.68,1.73,1.26,3.5,2,5.21,1.16,2.75,2.32,5.51,3.61,8.2a48.33,48.33,0,0,0,5.4,9.28,15.83,15.83,0,0,0,3.79,3.65,6.39,6.39,0,0,0,4.12,1.25,3,3,0,0,0,2.28-1.06,3,3,0,0,0-.65-4.24,7.49,7.49,0,0,1-2-2.3c-.25-.42-.42-.91-.7-1.32a24.29,24.29,0,0,1-2.23-4.55c-.94-2.3-1.85-4.61-2.64-7s-1.51-4.67-2.21-7c-.91-3-1.7-6.08-2.34-9.17-.4-1.89-.9-3.76-1.14-5.67-.18-1.45-.41-2.9-.68-4.32-.35-1.92-.38-3.84-.58-5.75-.16-1.44-.15-1.24,1.09-1.52.38-.09.75-.26,1.15-.32a29.49,29.49,0,0,0,5.52-1.66,49.45,49.45,0,0,0,7.38-3.44,46.66,46.66,0,0,0,7.44-5.33,31.09,31.09,0,0,0,4.66-5.19,21.06,21.06,0,0,0,3.28-6.67,14.59,14.59,0,0,0,.3-5.66,9.2,9.2,0,0,0-1.28-3.84c-2.29-3.77-5.76-6-9.81-7.41-1-.34-2-.65-2.94-.92a46,46,0,0,0-4.79-.92,31.63,31.63,0,0,1-3.35-.43,4,4,0,0,0-1.28-.12c-4.59.16-9.19-.34-13.77.31-1.63.23-3.3.21-5,.45-2.07.29-4.16.37-6.21.78-1.59.31-3.2.59-4.81.76-1.27.13-2.48.48-3.71.7A4.82,4.82,0,0,0,474.8,240a3,3,0,0,0,1.74,4.34,6.47,6.47,0,0,0,2.77.12c1.18-.17,2.3-.63,3.49-.79.81-.12,1.6-.31,2.39-.47.12.65-.24,1.09-.38,1.59-.76,2.66-1.57,5.29-2.36,7.93s-1.65,5.4-2.4,8.12c-.88,3.17-1.88,6.3-2.76,9.47a20.74,20.74,0,0,1-.89,2.84c-.1.24-.16.42-.45.42a23.65,23.65,0,0,1-2.38.22,2.3,2.3,0,0,0-1.81.68c-1.26,1.16-1.31,2.61-1.11,4.14a2.19,2.19,0,0,0,1.68,1.78A7.8,7.8,0,0,0,474,280.54Zm-89.31-3.35a2.89,2.89,0,0,1,3.5.8,5.08,5.08,0,0,0,7,.63,5.4,5.4,0,0,0,1-7.06,6.48,6.48,0,0,0-4.84-2.61c-1.39-.12-2.8,0-4.2,0a2.75,2.75,0,0,0-.5,0,20,20,0,0,0-7.54,3,1,1,0,0,1-1.15.1,19.09,19.09,0,0,0-5.56-1.45,41,41,0,0,0-9.06,0,7.8,7.8,0,0,0-1.18.17,41.06,41.06,0,0,0-4.31,1.18,20.4,20.4,0,0,0-4.39,2.3,20.68,20.68,0,0,0-5.13,5.38,23.32,23.32,0,0,0-3,6.16,19.92,19.92,0,0,0-.92,6.49,21.11,21.11,0,0,0,1.13,6.55,13.29,13.29,0,0,0,7.91,7.92c1.09.46,2.23.78,3.41,1.19a9,9,0,0,0-1.11,2.78,9.61,9.61,0,0,0,0,3,15.11,15.11,0,0,0,1.08,2.72l-.5.17c-1.95.53-3.94.89-5.85,1.57a19.87,19.87,0,0,0-6.46,3.46,10.25,10.25,0,0,0-3.62,5.58,19.49,19.49,0,0,0-.24,4.76,8.47,8.47,0,0,0,1.06,3.71,10.65,10.65,0,0,0,5.31,4.77,26.38,26.38,0,0,0,6.29,1.82c.75.12,1.51.2,2.26.3a19.23,19.23,0,0,0,2.35.4c3.82,0,7.65.36,11.45-.34a25.77,25.77,0,0,0,2.94-.5,31.81,31.81,0,0,0,5.95-2.22,15.51,15.51,0,0,0,5.84-5,11.9,11.9,0,0,0,1.76-4.42,21.22,21.22,0,0,0,.16-5.28,10.14,10.14,0,0,0-1.75-5.12,17.69,17.69,0,0,0-5-4.54c-3.11-2.1-6.45-3.81-9.73-5.63a6.28,6.28,0,0,1-2-1.3c.06-.25.21-.24.33-.27.65-.16,1.32-.13,2-.24a20.72,20.72,0,0,0,13.53-8.23,22.14,22.14,0,0,0,2.7-4.64,23.79,23.79,0,0,0,1.66-7.65,18.26,18.26,0,0,0-1.67-8.81Zm132.89,9.29a1,1,0,0,0,0,.3,34,34,0,0,1,.75,3.58c.33,1.11.33,2.28.67,3.4.55,1.77,1,3.58,1.52,5.35s1.08,3.27,1.63,4.91a1.11,1.11,0,0,0,1.2.86c.63-.08,1.38-.09,1.75-.76a9.36,9.36,0,0,0,.63-1.57c.47-1.48.89-3,1.38-4.45.93-2.84,1.9-5.66,2.85-8.49l2.88-8.69c.26-.78.55-1.56.75-2.37a1.08,1.08,0,0,0-.4-1.25,1.3,1.3,0,0,0-1.49.11c-.53.45-1.11.84-1.67,1.25a51.07,51.07,0,0,1-6,3.88c-1.8,1-3.69,1.78-5.58,2.59C517.74,285.46,517.6,285.68,517.62,286.48Zm-224-33.93a6,6,0,0,0-1.23-4.17,7.13,7.13,0,0,0-6.22-3,7.28,7.28,0,0,0-3.66,1.14,8.18,8.18,0,0,0-4.3,7.37,6.84,6.84,0,0,0,1.74,4.63,7.42,7.42,0,0,0,5.49,2.45,6.75,6.75,0,0,0,3.81-1C292,258.3,293.86,256.05,293.65,252.55Zm136.14,40.7a1.76,1.76,0,0,0-1-1.64,8.82,8.82,0,0,1-2.91-2.79,2.9,2.9,0,0,0-.43-.55,1,1,0,0,0-1.51,0,3.48,3.48,0,0,0-.67,1,69.65,69.65,0,0,0-3.22,7,3,3,0,0,0-.33,1.24,1,1,0,0,0,1.42,1.05,3,3,0,0,0,.56-.22,62.08,62.08,0,0,0,7.47-4.08A1.13,1.13,0,0,0,429.79,293.25Z" transform="translate(-76.33 -219.1)"/><path class="cls-6" d="M603.65,269.34a9.26,9.26,0,0,0-1.42,2.14c-1.21,2-2.48,4-3.65,6.07-.9,1.59-1.93,3.1-3,4.62-1.45,2.15-2.75,4.41-4.29,6.5-1,1.36-1.94,2.77-2.9,4.16s-2.12,2.9-3.21,4.33c-1.22,1.61-2.45,3.21-3.78,4.75q-1.74,2-3.55,3.92A25.83,25.83,0,0,1,571,311.2a8.92,8.92,0,0,1-5.72.91,8.76,8.76,0,0,1-5-2.74,16.85,16.85,0,0,1-3.61-6.9,49.45,49.45,0,0,1-1.42-7.83c-.8-6.17-.35-12.37-.47-18.56,0-.69.35-1.36.12-2.15a13,13,0,0,0-1.09,2.89c-1,2.89-2,5.79-2.91,8.7-.65,2-1.29,3.91-1.94,5.86-.92,2.74-1.85,5.48-2.76,8.22-.52,1.58-1,3.16-1.53,4.74-.92,2.77-1.88,5.53-2.75,8.31a20.64,20.64,0,0,0-1,3.27,1.37,1.37,0,0,0,.42.06c1.46-.33,3-.14,4.41-.66a3.32,3.32,0,0,1,3.13,1.3,2.94,2.94,0,0,1-.28,3.19,5.47,5.47,0,0,1-3.92,1.94,23.39,23.39,0,0,0-2.64.42,15.16,15.16,0,0,1-2.67.3,29.85,29.85,0,0,0-3.17.3c-1.75.33-3.53,0-5.26.36a9.26,9.26,0,0,1-1.9,0c-1.8,0-3.6,0-5.4,0a2.33,2.33,0,0,1-2.53-1.54,3.4,3.4,0,0,1,.83-3.58,5.69,5.69,0,0,1,3.78-1.3c1,0,2,0,3,0a10.61,10.61,0,0,0,3.17-.27,5.26,5.26,0,0,1,1.49-.06.61.61,0,0,0,.65-.45c.35-.83.51-1.72.78-2.57.74-2.31,1.41-4.65,2.21-6.93.72-2,1.3-4.11,2.06-6.13.59-1.59,1-3.24,1.53-4.84s1.08-3.07,1.56-4.62a22,22,0,0,0,.87-2.64,14.52,14.52,0,0,1,.61-1.79c.78-2.33,1.55-4.66,2.34-7,.86-2.55,1.74-5.09,2.6-7.64.49-1.45,1-2.9,1.45-4.35l2.26-6.69c.69-2,1.36-4.1,2-6.15.89-2.74,1.78-5.49,2.75-8.21.31-.88.59-1.77.82-2.67a6.84,6.84,0,0,1,2.17-3.5,12.72,12.72,0,0,1,5.44-2.78,13.46,13.46,0,0,1,3.23-.53c1.87,0,3.66,1.82,2.94,3.76a1.53,1.53,0,0,0-.1.59,50.94,50.94,0,0,1-.27,6.18A22.52,22.52,0,0,1,571,252a10,10,0,0,0-.18,2.19c0,1.29-.23,2.58-.39,3.86s-.23,2.31-.3,3.46c-.13,2-.62,4-.59,6,0,.8-.26,1.56-.32,2.37-.12,1.68-.21,3.38-.41,5s-.33,3.37-.52,5.05c-.2,1.85-.33,3.7-.48,5.55a30.08,30.08,0,0,1-.2,3.58c-.42,2.12-.07,4.26-.41,6.37a5.23,5.23,0,0,0,0,1.89,7.18,7.18,0,0,1,.1,1.79,19.94,19.94,0,0,0,.53,3.85c.1.61.15.57.81.41a7.59,7.59,0,0,0,2.65-1.54,35.33,35.33,0,0,0,5.68-5.59,87.7,87.7,0,0,0,5.44-7c2.41-3.47,4.84-6.92,7.09-10.49,1.86-3,3.79-5.87,5.58-8.87,1.93-3.25,3.94-6.47,5.88-9.72,1.4-2.37,2.83-4.74,4.24-7.11s2.65-4.44,4-6.65c.94-1.56,1.89-3.13,2.91-4.65,1.16-1.7,2.26-3.45,3.5-5.1a17.19,17.19,0,0,1,1.39-1.56,4,4,0,0,1,2.63-1.28,9.45,9.45,0,0,1,5.17.61A5.38,5.38,0,0,1,628,240a12.31,12.31,0,0,1-1.13,4.11c-.7,1.69-1.3,3.41-2,5.12-.76,2-1.5,4-2.17,6.09-.54,1.67-1.14,3.33-1.71,5-.68,2-1.24,4-2,6-.58,1.59-1.06,3.21-1.51,4.84s-1,3.09-1.4,4.68c-.2.87-.55,1.7-.79,2.56-.79,2.79-1.58,5.57-2.33,8.36-.54,2-1,4.06-1.53,6.1s-1,4-1.44,6c-.31,1.32-.59,2.66-.86,4-.41,2-.82,4-1.19,6-.32,1.73-.53,3.47-.8,5.21s-.34,3.3-.55,4.95c-.16,1.33-.17,2.65-.23,4a27.71,27.71,0,0,0,.4,3.76,12.86,12.86,0,0,1-.2,5.06,4.64,4.64,0,0,1-2.63,3,4.57,4.57,0,0,1-3.69-.11c-2.57-1.16-3.78-3.34-4.43-5.92a24.3,24.3,0,0,1-.74-6.53c0-2.23-.08-4.47.05-6.7a28.12,28.12,0,0,1,.41-4.66,12.85,12.85,0,0,0,.22-2.07c.14-2.19.59-4.34.83-6.52.21-2,.67-3.93,1-5.89.65-3.53,1.38-7,2.13-10.55.54-2.5,1.14-5,1.69-7.49s1.34-5.21,2-7.81c.09-.38.29-.75.11-1.15.2.06.16-.09.17-.2a.19.19,0,0,0,0-.08C603.64,269.11,603.66,269.23,603.65,269.34Zm7.67-17.47c.14.28-.05.48-.12.69-.5,1.55-1.05,3.09-1.54,4.64a334.53,334.53,0,0,0-9.1,35.8,171.63,171.63,0,0,0-3.23,23.35,45.63,45.63,0,0,0,.35,10.18,13,13,0,0,0,1.22,3.89,4.56,4.56,0,0,0,2.63,2.32A2.15,2.15,0,0,0,604,332a3.39,3.39,0,0,0,.61-1.25,6.93,6.93,0,0,0,.1-3.17,26.55,26.55,0,0,1-.46-5.77,95.35,95.35,0,0,1,1.86-15.06c1.42-7.49,3.23-14.9,5.24-22.26a426.55,426.55,0,0,1,13.68-41.93,12.51,12.51,0,0,0,.65-2,3.49,3.49,0,0,0-2.71-4.5c-2.08-.57-4-.49-5.46,1.71-.22.33-.48.63-.72,1-1.79,2.46-3.39,5-5,7.62-5.25,8.59-10.29,17.3-15.58,25.86-4.44,7.17-9,14.28-14,21a65.51,65.51,0,0,1-8.06,9.15,17.68,17.68,0,0,1-3.62,2.64,6.18,6.18,0,0,1-2.75.81,1.61,1.61,0,0,1-1.56-.88,6.94,6.94,0,0,1-.76-2.26,29.21,29.21,0,0,1-.42-4.58,107.44,107.44,0,0,1,.43-11.49q.46-6,1-12c.43-4.41.92-8.81,1.36-13.23.39-3.84.77-7.69,1.11-11.54.28-3.19.53-6.38.62-9.59,0-.93-.09-1-1-1.07a2.64,2.64,0,0,0-.4,0,12.12,12.12,0,0,0-5.79,2,5.49,5.49,0,0,0-2.32,3c-3.13,9.91-6.51,19.73-9.8,29.58q-5.29,15.85-10.58,31.73c-1.34,4-2.66,8.09-3.79,12.2-.15.55-.36.82-1,.83-1.23,0-2.46.17-3.7.19-2,0-4,.14-6,.2a2.53,2.53,0,0,0-1.56.59c-.35.29-.77.63-.57,1.16s.7.43,1.13.43h.5c3.54,0,7.07-.2,10.59-.48,3.29-.27,6.57-.65,9.82-1.21a2.76,2.76,0,0,0,1.52-.69c.24-.24.5-.49.39-.86s-.52-.35-.84-.35a2.74,2.74,0,0,0-.5,0c-1.81.32-3.64.47-5.46.66a13.58,13.58,0,0,1-2.39.09.92.92,0,0,1,0-.32l19.56-58.82s0,0,.07,0,0,.11.1,0a5.85,5.85,0,0,1,.09,1.5c0,3.51-.21,7-.37,10.5-.37,8.13-.7,16.26.29,24.37a37.66,37.66,0,0,0,1.49,7.13,13,13,0,0,0,3.13,5.51,6.39,6.39,0,0,0,4.7,1.87,7.78,7.78,0,0,0,3.86-1.22,24.73,24.73,0,0,0,4.7-3.7,88.22,88.22,0,0,0,9.78-11.62c5.79-7.92,11-16.23,16-24.66,3.18-5.35,6.29-10.75,9.44-16.12C610.84,252.41,611,252,611.32,251.87Z" transform="translate(-76.33 -219.1)"/><path class="cls-7" d="M164,265.32c-.49,1.05-1,2.12-1.46,3.16q-2.06,4.15-4,8.37c-.42.9-.9,1.78-1.33,2.68-1,2.09-2,4.2-3,6.3-.62,1.29-1.26,2.56-1.88,3.85-.91,1.88-1.82,3.76-2.71,5.66s-1.91,3.94-2.82,5.93c-1.08,2.36-2.33,4.64-3.31,7-.43,1-1,2-1.5,3-1.12,2.33-2.25,4.66-3.31,7a2.65,2.65,0,0,1-2.45,1.74c-1.4.05-2.8.05-4.2,0a2.29,2.29,0,0,1-2.34-1.93c-.92-3-1.92-5.94-2.78-8.94-.6-2.1-1.25-4.19-1.87-6.3-.71-2.38-1.54-4.73-2.21-7.13-.47-1.7-1-3.37-1.54-5.05-.67-2.23-1.28-4.47-2-6.67-.57-1.7-1-3.43-1.56-5.15s-1.07-3.42-1.59-5.13-1-3.26-1.43-4.88c-.43-1.43-.87-2.86-1.31-4.29,0-.08-.13-.13-.23-.22a19.09,19.09,0,0,0-.28,2.89,19.82,19.82,0,0,1-.32,2.26c-.15,1.92-.3,3.84-.62,5.74a18.81,18.81,0,0,0-.18,2.48c-.07,2.1-.6,4.14-.59,6.25,0,.92-.26,1.83-.33,2.76-.11,1.39-.27,2.77-.35,4.16-.06,1-.32,2-.38,3.07-.08,1.45-.25,2.9-.42,4.35-.2,1.69-.18,3.4-.46,5.05-.32,2-.28,4-.69,5.94a8.69,8.69,0,0,0,0,2.39c.07.94.63,1.45,1.72,1.59a14,14,0,0,0,3,.27,2.32,2.32,0,0,1,.69.07,1.93,1.93,0,0,1,1.79,2.05,10.85,10.85,0,0,1-.37,3,1.55,1.55,0,0,1-1.25,1.17,5,5,0,0,1-1.28.18h-19a4.74,4.74,0,0,1-1.19-.16,1.7,1.7,0,0,1-1.35-1.31,7.06,7.06,0,0,1,.2-3.84c.27-.94,1.15-1.15,2-1.21a25,25,0,0,0,3-.22,13.86,13.86,0,0,0,1.8-.55,1.42,1.42,0,0,0,.83-.94,5.93,5.93,0,0,0,.47-1.73c.06-1.2.29-2.37.42-3.56s.24-2.31.29-3.46c.11-2,.6-4,.59-6a23.37,23.37,0,0,1,.34-2.76c.13-1.09.22-2.19.28-3.27.11-2.09.63-4.14.59-6.25,0-.76.26-1.49.31-2.26.11-1.79.22-3.58.42-5.36.17-1.55.28-3.11.52-4.65.29-1.91.42-3.83.57-5.74s.58-4.07.6-6.14c0-1.06.3-2.1.37-3.16a38.87,38.87,0,0,0,.29-5.17c0-.83-.49-1.19-1.52-1.42a11.41,11.41,0,0,0-3.08-.19c-1.45.08-2.51-.6-2.61-2.56a8.52,8.52,0,0,1,.51-2.93,1.58,1.58,0,0,1,1.19-1.11,5,5,0,0,1,1.28-.17c5.8,0,11.6,0,17.41,0a2.85,2.85,0,0,1,3.07,2.38c.62,2.37,1.47,4.68,2.11,7,.51,1.86,1.11,3.69,1.63,5.55.57,2,1.22,4.07,1.83,6.1s1.13,3.75,1.69,5.63l1.92,6.39q.85,2.86,1.72,5.72c.64,2.13,1.29,4.26,1.93,6.39.58,1.94,1.14,3.89,1.72,5.82.47,1.56.95,3.11,1.43,4.67,0,.09.07.19.28.2.14-.23.32-.49.46-.77,1.08-2.25,2.14-4.5,3.22-6.75,1.3-2.69,2.63-5.37,3.93-8.06.71-1.47,1.36-3,2.07-4.42,1.68-3.5,3.43-7,5.06-10.49,1.1-2.38,2.31-4.71,3.39-7.1,1.42-3.15,3-6.21,4.54-9.31.66-1.35,1.31-2.69,1.9-4.06.47-1.1,1.1-2.12,1.56-3.24a2.68,2.68,0,0,1,2.69-1.69c5.44,0,10.88,0,16.31,0,1.46,0,2.41.59,2.47,1.8a8.92,8.92,0,0,1-.33,3.63,2.21,2.21,0,0,1-2.08,1.31c-.64,0-1.27,0-1.9,0a7.28,7.28,0,0,0-2.8.63,1.79,1.79,0,0,0-1,1.08,14.63,14.63,0,0,0-.68,3.71c-.22,1.84-.26,3.72-.5,5.56-.34,2.63-.44,5.29-.87,7.91a26.7,26.7,0,0,0-.26,3.58c0,1.06-.31,2.09-.36,3.16-.11,2.22-.49,4.42-.68,6.64a24.19,24.19,0,0,1-.41,4.06,8.67,8.67,0,0,0-.2,2c0,2.07-.48,4.09-.61,6.15a18,18,0,0,1-.39,3.86,8.21,8.21,0,0,0-.19,2c-.07,2-.49,4-.6,6.05a28.27,28.27,0,0,1-.33,3.67,3.18,3.18,0,0,0,.29,1.83c.25.54.89.67,1.44.77a17.44,17.44,0,0,0,3.07.28c2,0,2.89,1.25,2.4,3.19a4.71,4.71,0,0,0-.13,1,2.11,2.11,0,0,1-2.18,2.33,7.15,7.15,0,0,1-.8,0h-21c-2.28,0-3-.78-2.88-3a13.21,13.21,0,0,1,.3-2,1.72,1.72,0,0,1,1.32-1.36,5.59,5.59,0,0,1,1.58-.17,10.85,10.85,0,0,0,3.7-.62,1.79,1.79,0,0,0,1.13-1.05,5.13,5.13,0,0,0,.41-1.33c.14-1.36.3-2.71.44-4.06.2-1.81.41-3.62.58-5.44.13-1.32.26-2.65.33-4,0-1,.3-2,.35-3.06.13-2.22.49-4.42.69-6.63a26.57,26.57,0,0,1,.4-4,12.13,12.13,0,0,0,.23-2.27,43.78,43.78,0,0,1,.48-4.56,20.39,20.39,0,0,0,.21-2.58c.06-2,.57-4,.56-6a20.23,20.23,0,0,1,.31-2.67.94.94,0,0,0,.09-.57c.11-.09.17-.18.06-.3l-.17.21A.77.77,0,0,0,164,265.32Zm3.7-12.9a9.85,9.85,0,0,1-.15,2.51q-.66,6.72-1.33,13.43-.56,5.52-1.1,11-.51,5.18-1,10.35c-.36,3.58-.75,7.16-1.11,10.75-.35,3.38-.6,6.77-1,10.14s-1.77,4.28-4.37,4.81a18.16,18.16,0,0,1-3.28.34c-.49,0-.74.15-.73.68a13.56,13.56,0,0,1-.1,1.44,2.87,2.87,0,0,0,1.15.1h20c1.63,0,1.25.18,1.47-1.29.12-.89.09-.89-.78-.93a13.46,13.46,0,0,1-4-.63,3.2,3.2,0,0,1-2.23-2.46,6.38,6.38,0,0,1-.12-1.79c.12-2.84.5-5.64.77-8.46.33-3.62.73-7.23,1.09-10.85s.69-7.23,1-10.85c.44-4.37.9-8.75,1.34-13.13s.84-8.69,1.27-13A11.26,11.26,0,0,1,175,252a4.29,4.29,0,0,1,3-2.87,15.27,15.27,0,0,1,3.73-.59c1.25-.07,1.25-.06,1.36-1.33.07-.9.07-.91-.88-.91-5.11,0-10.21,0-15.31,0a1.22,1.22,0,0,0-1.28.82q-14,29.28-28.1,58.53c-.1.19-.11.48-.44.52-.07-.18-.16-.35-.22-.54q-3.4-11.38-6.82-22.76-5.32-17.79-10.67-35.58c-.29-1-.3-1-1.27-1H101.35c-1.16,0-1,0-1,.93a5.36,5.36,0,0,1-.11.79c-.06.36.09.49.43.5s.6,0,.9,0a14.59,14.59,0,0,1,3.53.61,3.16,3.16,0,0,1,2.27,2.76,9.12,9.12,0,0,1,0,2.39q-.54,5.69-1.1,11.35c-.45,4.48-.91,8.95-1.35,13.43-.36,3.55-.7,7.1-1,10.65s-.75,7.23-1.11,10.84c-.34,3.38-.59,6.78-1,10.15-.42,3.14-1.71,4.22-4.3,4.77a19.91,19.91,0,0,1-3.07.35c-.93,0-.93,0-1,.91,0,.4-.09.79-.14,1.18a1.91,1.91,0,0,0,1.1.13H112.6c.79,0,.79,0,.87-.82l0-.3c.08-1.1.21-1.08-1-1.11a12.2,12.2,0,0,1-3.83-.63,3.19,3.19,0,0,1-2.18-2.51,9.94,9.94,0,0,1-.07-3c.18-1.76.37-3.52.54-5.27.36-3.62.69-7.24,1.06-10.85s.75-7.16,1.11-10.74q.72-7.07,1.41-14.13l1.5-15.32c0-.23,0-.48.22-.63.13.59.23,1.18.4,1.75q3,9.89,6,19.77,5.25,17.24,10.49,34.47c.87,2.86,1.75,5.73,2.61,8.6a.82.82,0,0,0,1,.72,25.5,25.5,0,0,1,2.9,0,1,1,0,0,0,1.12-.71c1.75-3.73,3.54-7.45,5.32-11.18l22.54-47.22C165.63,256.82,166.62,254.72,167.72,252.42Z" transform="translate(-76.33 -219.1)"/><path class="cls-6" d="M224,278.55a1.83,1.83,0,0,0,.46,1.08,18.32,18.32,0,0,1,2.34,5.8,22.22,22.22,0,0,1,.59,5.63,34.65,34.65,0,0,1-.23,5.58,30.87,30.87,0,0,1-1.51,5.89,25.19,25.19,0,0,1-2.15,4.47,32.48,32.48,0,0,1-7.66,8.6,25.86,25.86,0,0,1-5.36,3.2,30.36,30.36,0,0,1-5.1,1.66,12.56,12.56,0,0,1-2.67.3c-1.57.05-3.13,0-4.7,0a23.16,23.16,0,0,1-7.41-1.35,19.76,19.76,0,0,1-6.85-4,17,17,0,0,1-4.59-6.43,21.07,21.07,0,0,1-1.52-6.78,22.67,22.67,0,0,1-.27-2.87c.25-3.62.53-7.24,1.88-10.65a28.4,28.4,0,0,1,4.88-8.3,35.2,35.2,0,0,1,5-4.86,25.32,25.32,0,0,1,6.46-3.67,32.56,32.56,0,0,1,4.21-1.2,11.27,11.27,0,0,1,2.66-.34H207a20.54,20.54,0,0,1,4.34.54,25.46,25.46,0,0,1,4.72,1.52,19.47,19.47,0,0,1,5.41,3.5c.21.19.34.49.7.54a2.6,2.6,0,0,0,.2-1.23,13,13,0,0,1,.07-1.4,1.86,1.86,0,0,1,1.6-1.68c1.36-.3,2.76-.36,4.13-.6,2.32-.4,4.68-.42,7-.89a13.69,13.69,0,0,1,3.57-.3,2.4,2.4,0,0,1,2.38,1.7c1.14,3,2.33,5.94,3.41,8.94.92,2.56,1.78,5.14,2.54,7.76.51,1.76,1.08,3.49,1.54,5.26.58,2.25,1.21,4.5,1.66,6.79.22,1.17.55,2.32.85,3.57a4.55,4.55,0,0,0,.94-1.31c1.35-2.67,2.75-5.32,4-8,1.17-2.5,2.24-5,3.17-7.63.53-1.47,1-2.95,1.39-4.46a15.34,15.34,0,0,0,.62-5.52,5.17,5.17,0,0,0-.66-2.28,3.92,3.92,0,0,1-.39-1,2.08,2.08,0,0,1,.85-2.46,6.53,6.53,0,0,1,3.9-1.32,18.42,18.42,0,0,1,3.78.16,6.9,6.9,0,0,1,3.55,1.88c.18.19.3.45.59.54a5.24,5.24,0,0,1,3.39-1.15c1-.1,1.91-.23,2.86-.39s1.65-.19,2.47-.26c1.16-.1,2.3-.33,3.45-.45a13,13,0,0,1,4.45-.2,1.83,1.83,0,0,1,1.47,1.45,4.43,4.43,0,0,1,.06,2,38,38,0,0,0-.48,4.26c-.18,1.84-.44,3.69-.59,5.53s-.49,4-.62,5.95a22.4,22.4,0,0,1-.42,4.16,9.09,9.09,0,0,0-.19,1.88c-.06,2-.48,4-.6,6.05a24.05,24.05,0,0,1-.39,3.86,18.47,18.47,0,0,0-.25,2.37,10.4,10.4,0,0,1-.27,2.67.46.46,0,0,0,.13.51c.67-.48.84-1.32,1.35-1.91a1.11,1.11,0,0,0,.12-.27c1.09-2.36,2.09-2.6,4.89-2.31a2,2,0,0,1,1.76,2.68,8.35,8.35,0,0,1-1.24,2.71c-.49.75-.88,1.56-1.35,2.32a16.36,16.36,0,0,1-4.44,4.93,6.84,6.84,0,0,1-4.46,1.46c-.3,0-.6,0-.9,0-2.85.19-4.89-1.81-5.84-4.27a16.62,16.62,0,0,1-.7-7.67c.11-1.22.23-2.44.37-3.66.21-1.81.2-3.64.59-5.44a17.51,17.51,0,0,0,.25-3c.08-2,.53-3.95.59-5.95a14.49,14.49,0,0,1,.34-3.06,14.19,14.19,0,0,0,.27-3c.06-1.23.39-2.43.36-3.66a11.56,11.56,0,0,1,.17-1.18,3.2,3.2,0,0,0-.11-1.19.47.47,0,0,0-.56-.41,15.67,15.67,0,0,0-3,.15,5,5,0,0,1-1.5,0c-.38,0-.54.11-.56.5-.12,2.43-1.21,4.53-2.27,6.64-1,1.89-1.94,3.78-3,5.64-.93,1.68-1.93,3.33-2.91,5-1.37,2.31-2.75,4.63-4.13,6.93l-3.1,5.12q-2.14,3.54-4.3,7.07c-.74,1.19-1.51,2.35-2.27,3.53a2.54,2.54,0,0,1-2.29,1.17c-1,0-2.07,0-3.1,0a2.23,2.23,0,0,1-2.47-2.07c-.38-1.85-1-3.65-1.49-5.48-.46-1.66-.9-3.33-1.39-5s-.9-3.26-1.47-4.86c-.52-1.43-.94-2.9-1.41-4.35-.65-1.95-1.38-3.88-2.13-5.8-1.36-3.46-3-6.79-4.6-10.15-.55-1.18-1.18-2.31-1.77-3.46a1.16,1.16,0,0,0-1.12-.64C227,278.24,225.57,278.62,224,278.55Zm1.25,13.4a28,28,0,0,0-.41-5.08,15.94,15.94,0,0,0-8.21-11.68A23.19,23.19,0,0,0,206,272.47a22.63,22.63,0,0,0-14,3.79c-9.61,6.56-13.85,17-11.78,28.47a15.68,15.68,0,0,0,9.28,11.87,23.13,23.13,0,0,0,7.79,2,24,24,0,0,0,11.48-1.47,26.68,26.68,0,0,0,13-11.63A26.25,26.25,0,0,0,225.28,292Zm-.8-15.51,2.22-.27a16,16,0,0,1,2.3-.08,2.41,2.41,0,0,1,2.41,1.43c.19.43.45.82.66,1.23a141.53,141.53,0,0,1,10.36,25.59c1.26,4.31,2.5,8.63,3.6,13,.12.5.32.75.87.72a14.72,14.72,0,0,1,2.1,0,1.18,1.18,0,0,0,1.2-.66c5.21-8.41,10.42-16.82,15.33-25.41a99.93,99.93,0,0,0,5.22-10,12.31,12.31,0,0,0,1-5.46,3.77,3.77,0,0,0-2.78-3.62,8.53,8.53,0,0,0-5.49,0,4,4,0,0,0-.81.39c-.31.17-.37.39-.17.73a9.38,9.38,0,0,1,.92,5.82A36.11,36.11,0,0,1,261,289a144.66,144.66,0,0,1-10.25,20.87,5.61,5.61,0,0,1-.41.55c-.09.12-.19.2-.34.16s-.15-.17-.17-.31c-.28-2.32-.79-4.59-1.29-6.87a181.29,181.29,0,0,0-9.44-30.17c-.32-.77-.32-.77-1.17-.67l-6.94.87-5.85.73c-.28,0-.53.08-.58.42A5.17,5.17,0,0,0,224.48,276.44Zm64.39-3.84a2,2,0,0,0-1.17,0l-2.37.32c-3.08.39-6.15.77-9.22,1.17-.46.06-1-.12-1.34.24s-.13,1-.25,1.45a1.25,1.25,0,0,0,0,.19c0,.33,0,.51.43.45s1.06-.15,1.59-.21a12.71,12.71,0,0,1,2.89-.08,1.88,1.88,0,0,1,2,1.8,9.34,9.34,0,0,1,.1,2.79c-.21,2.19-.45,4.38-.66,6.57q-.64,6.51-1.28,13c-.34,3.42-.71,6.83-1,10.25a10.77,10.77,0,0,0,1,5.83,4,4,0,0,0,3.75,2.37,6.1,6.1,0,0,0,3.16-.81,10.32,10.32,0,0,0,3.12-2.76,34.48,34.48,0,0,0,3-4.85c.24-.43.46-.86.69-1.3-.4-.2-.73-.08-1.06-.13a1.09,1.09,0,0,0-1.24.72,20.27,20.27,0,0,1-2,3.13,9.11,9.11,0,0,1-1.74,1.93c-1.1.85-1.93.52-2.2-.86,0-.2-.07-.4-.08-.6a26.65,26.65,0,0,1,.18-4c.35-3.61.73-7.23,1.09-10.84q.63-6.47,1.28-12.93C288,281.19,288.43,276.92,288.87,272.6Z" transform="translate(-76.33 -219.1)"/><path class="cls-6" d="M394.93,299.4a30.89,30.89,0,0,1,.23-5,25,25,0,0,1,.62-3.33c.46-1.87.92-3.74,1.46-5.6.58-2,1.33-4,2.1-5.9a56.81,56.81,0,0,1,3.81-7.45,92.06,92.06,0,0,1,6-8.86,99.77,99.77,0,0,1,10-11.27,76.08,76.08,0,0,1,7.75-6.58c1.41-1.05,2.87-2,4.37-3a46.87,46.87,0,0,1,7.19-3.6,42.43,42.43,0,0,1,5.91-1.72,11.37,11.37,0,0,1,2.66-.31,24.9,24.9,0,0,1,5.39.18,11.75,11.75,0,0,1,6.25,3.45,14.73,14.73,0,0,1,3.36,6,31,31,0,0,1,1,5.16,38.89,38.89,0,0,1,.11,6.29,45.57,45.57,0,0,1-1.28,8.35,35.48,35.48,0,0,1-3.23,9,21.44,21.44,0,0,1-3.91,5.15,16.5,16.5,0,0,1-6,3.81,9.79,9.79,0,0,1-2.72.58,1.48,1.48,0,0,0-.3,0c-1.53.57-3,0-4.49-.21A10.2,10.2,0,0,1,436,281.9a12.08,12.08,0,0,1-3.88-9.07,20.84,20.84,0,0,1,2.38-9.58c.37-.77.79-1.53,1.24-2.27a4.34,4.34,0,0,1,3.05-2.36c1.71-.26,2.76.36,3.23,1.54a3.59,3.59,0,0,1-.15,2.92c-.26.53-.56,1.06-.85,1.58a20.3,20.3,0,0,0-2.55,7.5,5.7,5.7,0,0,0,1.6,4.95,4.82,4.82,0,0,0,2.79,1.43,9.1,9.1,0,0,0,2.45.08,8.78,8.78,0,0,0,4.75-2.54,18.71,18.71,0,0,0,4.13-6.15,26.29,26.29,0,0,0,2-7.36,16.09,16.09,0,0,0,.2-4.34,28.71,28.71,0,0,0-.65-4.12,8,8,0,0,0-1.61-3.17,4.57,4.57,0,0,0-2.44-1.45,9.35,9.35,0,0,0-4.58.47,29.1,29.1,0,0,0-7.14,3.23,50.14,50.14,0,0,0-5.41,3.75c-2.23,1.78-4.36,3.68-6.41,5.66-1.65,1.59-3.17,3.32-4.67,5a93,93,0,0,0-6.31,8.23c-1.34,1.95-2.54,4-3.73,6a67.48,67.48,0,0,0-3.8,7.67,40.75,40.75,0,0,0-2,6.34,22.61,22.61,0,0,0-.65,6.44,8.57,8.57,0,0,0,3,6.5,10.88,10.88,0,0,0,5.29,2.14,25.43,25.43,0,0,0,4.08.22,16.75,16.75,0,0,0,3.72-.57A32.46,32.46,0,0,0,430,308c.81-.39,1.58-.86,2.34-1.32a60.65,60.65,0,0,0,8.27-6.08,63.24,63.24,0,0,0,7.37-7.45,15.79,15.79,0,0,0,2.61-4.1,3.93,3.93,0,0,1,4.57-2.12,2.76,2.76,0,0,1,2,3.14,6,6,0,0,1-1.14,2.73c-1.31,2-2.62,3.93-4.09,5.78a75.22,75.22,0,0,1-5.83,6.41,71.78,71.78,0,0,1-7,5.94,51.86,51.86,0,0,1-6.55,4.17c-1.37.75-2.78,1.43-4.19,2.07a27.05,27.05,0,0,1-4.39,1.59c-1.35.34-2.69.73-4.05,1a23.74,23.74,0,0,1-3.26.37c-1.16.06-2.33,0-3.5,0a19,19,0,0,1-6.09-.86,15.86,15.86,0,0,1-6-3.16,16.1,16.1,0,0,1-4.92-7.26c-.35-1.11-.65-2.23-.91-3.36a17,17,0,0,1-.33-2.76C394.89,301.73,394.93,300.73,394.93,299.4Zm66-44c0-.46,0-.93,0-1.4a23.17,23.17,0,0,0-1.8-8.85,10,10,0,0,0-9.59-6.3,26.78,26.78,0,0,0-10.42,2,53,53,0,0,0-15.3,9.68,93,93,0,0,0-17.68,20.82,57.76,57.76,0,0,0-9,25.38,28.07,28.07,0,0,0,.54,9.54c1.36,5.56,4.66,9.35,10.26,10.93a26.35,26.35,0,0,0,10.61.48,32.28,32.28,0,0,0,10.07-3.1,61.75,61.75,0,0,0,26.06-23.95,3,3,0,0,0,.32-.62.76.76,0,0,0-.68-1.07,1.69,1.69,0,0,0-1.64.9,18.31,18.31,0,0,1-2.55,4.05,62,62,0,0,1-10.61,10.43,49.23,49.23,0,0,1-12.34,7.3A22.37,22.37,0,0,1,413,312.76a10.46,10.46,0,0,1-8.16-9.48,23.7,23.7,0,0,1,.61-7.83,50.78,50.78,0,0,1,4.79-12.34,89.78,89.78,0,0,1,13.3-18.81,70,70,0,0,1,14.6-12.54,31,31,0,0,1,10.43-4.39,8.09,8.09,0,0,1,4.62.29,7.85,7.85,0,0,1,4.29,4.64,16.39,16.39,0,0,1,1.17,5.75,28.69,28.69,0,0,1-3.38,14.72,17.68,17.68,0,0,1-4.79,5.84,9.89,9.89,0,0,1-7,2.28,7.53,7.53,0,0,1-6.77-5.23,10.32,10.32,0,0,1-.24-4.75,23.58,23.58,0,0,1,2.89-7.82c.23-.41.45-.83.67-1.23s.25-.58,0-.83a.83.83,0,0,0-.83-.21,2.07,2.07,0,0,0-1.33,1,26.26,26.26,0,0,0-2.62,5.48,15.27,15.27,0,0,0-.76,7.19A9.65,9.65,0,0,0,446,282.61a13.28,13.28,0,0,0,7.06-3.7,20.37,20.37,0,0,0,4.71-7.11A45.48,45.48,0,0,0,461,255.42Z" transform="translate(-76.33 -219.1)"/><path class="cls-6" d="M474,280.54a7.8,7.8,0,0,1-1.71-.2,2.19,2.19,0,0,1-1.68-1.78c-.2-1.53-.15-3,1.11-4.14a2.3,2.3,0,0,1,1.81-.68,23.65,23.65,0,0,0,2.38-.22c.29,0,.35-.18.45-.42a20.74,20.74,0,0,0,.89-2.84c.88-3.17,1.88-6.3,2.76-9.47.75-2.72,1.59-5.42,2.4-8.12s1.6-5.27,2.36-7.93c.14-.5.5-.94.38-1.59-.79.16-1.58.35-2.39.47-1.19.16-2.31.62-3.49.79a6.47,6.47,0,0,1-2.77-.12A3,3,0,0,1,474.8,240a4.82,4.82,0,0,1,3.62-2.39c1.23-.22,2.44-.57,3.71-.7,1.61-.17,3.22-.45,4.81-.76,2.05-.41,4.14-.49,6.21-.78,1.65-.24,3.32-.22,5-.45,4.58-.65,9.18-.15,13.77-.31a4,4,0,0,1,1.28.12,31.63,31.63,0,0,0,3.35.43,46,46,0,0,1,4.79.92c1,.27,2,.58,2.94.92,4,1.43,7.52,3.64,9.81,7.41a9.2,9.2,0,0,1,1.28,3.84,14.59,14.59,0,0,1-.3,5.66,21.06,21.06,0,0,1-3.28,6.67,31.09,31.09,0,0,1-4.66,5.19,46.66,46.66,0,0,1-7.44,5.33,49.45,49.45,0,0,1-7.38,3.44,29.49,29.49,0,0,1-5.52,1.66c-.4.06-.77.23-1.15.32-1.24.28-1.25.08-1.09,1.52.2,1.91.23,3.83.58,5.75.27,1.42.5,2.87.68,4.32.24,1.91.74,3.78,1.14,5.67.64,3.09,1.43,6.14,2.34,9.17.7,2.35,1.42,4.7,2.21,7s1.7,4.68,2.64,7a24.29,24.29,0,0,0,2.23,4.55c.28.41.45.9.7,1.32a7.49,7.49,0,0,0,2,2.3,3,3,0,0,1,.65,4.24,3,3,0,0,1-2.28,1.06,6.39,6.39,0,0,1-4.12-1.25,15.83,15.83,0,0,1-3.79-3.65,48.33,48.33,0,0,1-5.4-9.28c-1.29-2.69-2.45-5.45-3.61-8.2-.71-1.71-1.29-3.48-2-5.21-1.07-2.72-2-5.51-2.84-8.29-.59-1.83-1.15-3.67-1.64-5.54s-1-4.06-1.51-6.09c-.25-1-.46-2.08-.63-3.12-.08-.5-.27-.71-.77-.65a23.65,23.65,0,0,1-3.65.46c-.27,0-.31.2-.38.39-.86,2.37-1.71,4.74-2.58,7.11-.47,1.27-1,2.53-1.45,3.81-.54,1.47-1,3-1.55,4.41-.93,2.42-1.71,4.89-2.54,7.34-.54,1.6-1.06,3.22-1.55,4.83-.55,1.78-1.05,3.57-1.58,5.36a1.54,1.54,0,0,0-.1.67.53.53,0,0,0,.57.08,18.43,18.43,0,0,1,3-.37,2.66,2.66,0,0,1,2.79,1.18,3.11,3.11,0,0,1,.18,3.24,3.84,3.84,0,0,1-2.94,2c-2,.35-4.11.19-6.14.51a4.09,4.09,0,0,1-.7,0c-5.1,0-10.21,0-15.31,0a16.38,16.38,0,0,1-3-.24A3.22,3.22,0,0,1,451.4,317a3.32,3.32,0,0,1,1.71-3,7.65,7.65,0,0,1,4.68-.56c.79.07,1.58.15,2.38.18a12.87,12.87,0,0,1,2.48.15c.77.16.84.09,1.08-.64l2.4-7.29c.9-2.74,1.87-5.46,2.69-8.23.63-2.1,1.33-4.18,2-6.28.88-2.92,1.84-5.82,2.74-8.74C473.73,281.94,473.86,281.29,474,280.54Zm-1.26,35.32c1-3.95,2.1-7.75,3.3-11.52,2.7-8.43,5.86-16.7,8.87-25,.45-1.23.95-1.91,2.39-1.95,1.89-.07,3.77-.41,5.65-.66.52-.07.7.1.78.61a97.77,97.77,0,0,0,3.1,13.42A164.78,164.78,0,0,0,507,316.87a39.58,39.58,0,0,0,4.83,7.92,11.42,11.42,0,0,0,3.41,2.89,3.94,3.94,0,0,0,2,.52c.41,0,.84-.08,1-.53s-.19-.7-.5-.9a7.51,7.51,0,0,1-2.29-2.47c-.36-.56-.71-1.13-1-1.71a68.44,68.44,0,0,1-4.34-10,147.25,147.25,0,0,1-6.83-26.45,74.82,74.82,0,0,1-.93-10.35c0-.9,0-.92.87-1.08a50,50,0,0,0,11.4-3.57,39.59,39.59,0,0,0,13.92-10,20.37,20.37,0,0,0,4.27-7.39,10.36,10.36,0,0,0-4.06-12.08,19.66,19.66,0,0,0-4.38-2.35,39.33,39.33,0,0,0-10.8-2.37,89.59,89.59,0,0,0-15.19,0c-4.38.33-8.75.89-13.09,1.61-2.16.36-4.32.76-6.49,1.15a2.62,2.62,0,0,0-1.78,1,.92.92,0,0,0,.6,1.58,3.39,3.39,0,0,0,1.58-.08c1.78-.42,3.56-.83,5.36-1.19a24.53,24.53,0,0,1,3.9-.61.91.91,0,0,1-.08.72c-1.31,4-2.48,8.09-3.68,12.14q-3.21,10.76-6.38,21.53a.94.94,0,0,1-1,.82c-1,.06-2,.14-3,.14a1.57,1.57,0,0,0-1.55,1.88c.07.41.26.68.73.65.63,0,1.26-.08,1.89-.1a6,6,0,0,1,1.84,0l-.29,1q-4.38,14.37-9,28.66c-.81,2.47-1.65,4.93-2.45,7.39-.16.47-.38.7-.92.66-1-.08-1.93-.05-2.9-.1l-5.29-.32a3.18,3.18,0,0,0-2.19.5.82.82,0,0,0,.09,1.47,2.28,2.28,0,0,0,1.15.28c.8,0,1.6,0,2.4.07a183.7,183.7,0,0,0,20.59-.33,3.2,3.2,0,0,0,1.36-.29c.56-.31,1-1,.87-1.35s-.54-.57-1.38-.49l-4.47.47A6.57,6.57,0,0,1,472.78,315.86Z" transform="translate(-76.33 -219.1)"/><path class="cls-6" d="M313.7,276.57c.7-.66,1.36-1.36,2.09-2a17.92,17.92,0,0,1,4.18-2.65,19.19,19.19,0,0,1,5.24-1.51,13.31,13.31,0,0,1,1.9-.06,26.38,26.38,0,0,1,4.78.19,15.92,15.92,0,0,1,5.12,1.82,10.46,10.46,0,0,1,3.4,3.15,9.55,9.55,0,0,1,1.28,2.9,24.91,24.91,0,0,1,.65,7.92,38.22,38.22,0,0,1-.61,5.94,15.83,15.83,0,0,0-.18,2.48c-.08,2-.58,4-.59,6a20.1,20.1,0,0,1-.34,2.67c-.14,1.08-.12,2.18-.28,3.27s-.13,2.18-.34,3.26a1.7,1.7,0,0,0,.11,1.15,10.29,10.29,0,0,0,1.36-2.1c.17-.29.29-.6.47-.89a3,3,0,0,1,2.71-1.57,8.25,8.25,0,0,1,2,.13,1.83,1.83,0,0,1,1.47,1.56,2.9,2.9,0,0,1-.2,1.86,40.17,40.17,0,0,1-3.42,5.84,12.26,12.26,0,0,1-5.25,4.31,4.86,4.86,0,0,1-1.34.37,11.89,11.89,0,0,1-4.08,0,6.13,6.13,0,0,1-4.28-4,12.36,12.36,0,0,1-.86-4.67,30.88,30.88,0,0,1,.28-5.37c.31-2,.28-4,.71-5.93a11,11,0,0,0,.18-2c0-1.23.27-2.44.27-3.68,0-1,.3-2,.38-3.06.21-2.88.8-5.73.6-8.64a10.41,10.41,0,0,0-1-3.83,2.25,2.25,0,0,0-1.48-1.24,8,8,0,0,0-7.41,1.45,17.14,17.14,0,0,0-4.43,5.46,45.64,45.64,0,0,0-3.4,7.63q-1.33,3.81-2.34,7.72a15.28,15.28,0,0,0-.24,2.78c-.08,1.23-.27,2.44-.4,3.66a22.51,22.51,0,0,1-.37,3.56,11.46,11.46,0,0,0-.24,2.48c-.07,1.13-.29,2.24-.27,3.38a9.26,9.26,0,0,1-.48,2.44,1.54,1.54,0,0,1-1.18,1.11,4.5,4.5,0,0,1-1.28.19h-5.5c-2.37,0-2.78-1.32-2.59-3.09.15-1.42.32-2.84.36-4.26a24.28,24.28,0,0,1,.37-2.56c.15-1.25.13-2.52.36-3.77a30.68,30.68,0,0,0,.31-3.07,23.8,23.8,0,0,1,.38-3.95,10.39,10.39,0,0,0,.24-2.28c.05-2.06.52-4.08.6-6.14a13.87,13.87,0,0,1,.38-3.56,9.64,9.64,0,0,0,.18-2.08c.12-1.79.44-3.56.58-5.34a4,4,0,0,0,0-.6c0-1-.06-1.06-1.07-1.08a18.68,18.68,0,0,0-3.17.19,3.72,3.72,0,0,1-1.2,0,1.81,1.81,0,0,1-1.65-1.5,4.42,4.42,0,0,1-.11-.89,16.92,16.92,0,0,1,.3-2.36,1.85,1.85,0,0,1,1.58-1.59c1.32-.34,2.69-.37,4-.59,2-.31,4-.33,5.92-.69,1.41-.27,2.82-.37,4.24-.51a3.06,3.06,0,0,1,1,.1,1.88,1.88,0,0,1,1.7,1.8,4.62,4.62,0,0,1-.05,1.89,7,7,0,0,0-.21,2.28c-.06.08-.11.19,0,.25S313.67,276.64,313.7,276.57Zm-2-4a1.14,1.14,0,0,0-.86-.06l-2.67.36c-3.08.39-6.15.77-9.22,1.17-.46.06-1-.12-1.34.25s-.13,1-.25,1.44a1.38,1.38,0,0,0,0,.2c0,.34.06.5.44.43s1.06-.14,1.59-.2a13,13,0,0,1,2.79-.09c1.4.12,1.89.55,2.14,1.92a9.12,9.12,0,0,1,.09,2.5c-.26,2.82-.54,5.64-.82,8.46-.35,3.58-.72,7.16-1.08,10.74-.29,2.89-.57,5.78-.86,8.66l-.9,9c-.06.65,0,.67.61.67,1.73,0,3.47,0,5.2,0,.56,0,.66-.24.7-.71q.72-7.57,1.48-15.13a15.51,15.51,0,0,1,.3-2.37,81.55,81.55,0,0,1,3-9.71,35.92,35.92,0,0,1,5.13-9.45c2.61-3.27,5.85-5.18,10.18-4.92a5.37,5.37,0,0,1,5.35,4.26,18.1,18.1,0,0,1,.5,6.55c-.31,3.55-.69,7.1-1,10.64-.43,4.32-.87,8.63-1.29,12.94a12,12,0,0,0,.69,5.6c1,2.55,2.83,3.36,5.43,2.91a8.53,8.53,0,0,0,5.33-3.45,36.68,36.68,0,0,0,3.59-6s0-.13,0-.25a5,5,0,0,1-.66,0,1.38,1.38,0,0,0-1.63.91,19.37,19.37,0,0,1-2.35,3.6,6,6,0,0,1-1.59,1.51,1,1,0,0,1-1.69-.55,4.36,4.36,0,0,1-.27-1.57c0-1.63.18-3.26.33-4.88.25-2.79.56-5.57.85-8.36L340,288.92a32.36,32.36,0,0,0-.08-8.57,7.92,7.92,0,0,0-3.69-5.89,12.44,12.44,0,0,0-2.9-1.32,18.46,18.46,0,0,0-6.73-.63,16.06,16.06,0,0,0-9.68,4.07,24.58,24.58,0,0,0-5.85,8.27c-.15.33-.22.75-.65,1C310.81,281.39,311.24,277,311.68,272.61Z" transform="translate(-76.33 -219.1)"/><path class="cls-6" d="M384.73,277.19l.88,1.55a18.26,18.26,0,0,1,1.67,8.81,23.79,23.79,0,0,1-1.66,7.65,22.14,22.14,0,0,1-2.7,4.64,20.72,20.72,0,0,1-13.53,8.23c-.65.11-1.32.08-2,.24-.12,0-.27,0-.33.27a6.28,6.28,0,0,0,2,1.3c3.28,1.82,6.62,3.53,9.73,5.63a17.69,17.69,0,0,1,5,4.54,10.14,10.14,0,0,1,1.75,5.12,21.22,21.22,0,0,1-.16,5.28,11.9,11.9,0,0,1-1.76,4.42,15.51,15.51,0,0,1-5.84,5,31.81,31.81,0,0,1-5.95,2.22,25.77,25.77,0,0,1-2.94.5c-3.8.7-7.63.36-11.45.34a19.23,19.23,0,0,1-2.35-.4c-.75-.1-1.51-.18-2.26-.3a26.38,26.38,0,0,1-6.29-1.82,10.65,10.65,0,0,1-5.31-4.77,8.47,8.47,0,0,1-1.06-3.71,19.49,19.49,0,0,1,.24-4.76,10.25,10.25,0,0,1,3.62-5.58,19.87,19.87,0,0,1,6.46-3.46c1.91-.68,3.9-1,5.85-1.57l.5-.17a15.11,15.11,0,0,1-1.08-2.72,9.61,9.61,0,0,1,0-3,9,9,0,0,1,1.11-2.78c-1.18-.41-2.32-.73-3.41-1.19a13.29,13.29,0,0,1-7.91-7.92,21.11,21.11,0,0,1-1.13-6.55,19.92,19.92,0,0,1,.92-6.49,23.32,23.32,0,0,1,3-6.16,20.68,20.68,0,0,1,5.13-5.38,20.4,20.4,0,0,1,4.39-2.3,41.06,41.06,0,0,1,4.31-1.18,7.8,7.8,0,0,1,1.18-.17,41,41,0,0,1,9.06,0A19.09,19.09,0,0,1,378,272a1,1,0,0,0,1.15-.1,20,20,0,0,1,7.54-3,2.75,2.75,0,0,1,.5,0c1.4,0,2.81-.1,4.2,0a6.48,6.48,0,0,1,4.84,2.61,5.4,5.4,0,0,1-1,7.06,5.08,5.08,0,0,1-7-.63A2.89,2.89,0,0,0,384.73,277.19ZM361.87,318l-.94.12a59.56,59.56,0,0,0-6.49,1.15,25.5,25.5,0,0,0-7.41,2.89,9.12,9.12,0,0,0-4.76,8.82,8.17,8.17,0,0,0,3,6.09,11.84,11.84,0,0,0,4.16,2.1,44,44,0,0,0,9.73,1.64,41.51,41.51,0,0,0,10-.43,25,25,0,0,0,8.21-2.71c3.62-2,5.85-5,6.14-9.21a14.93,14.93,0,0,0-.41-4.85,9.29,9.29,0,0,0-3.6-4.91,46.27,46.27,0,0,0-5.69-3.71c-2.64-1.48-5.34-2.86-7.92-4.46a6.42,6.42,0,0,1-1.19-.9,1.08,1.08,0,0,1-.26-1.37,3.56,3.56,0,0,1,2.79-2.13,18.84,18.84,0,0,0,15.49-9.91,19.35,19.35,0,0,0,2.22-12.57,11.37,11.37,0,0,0-3.77-7.18c-.1-.09-.22-.16-.21-.31s.14-.23.25-.28a9.73,9.73,0,0,1,6.11-1,3.78,3.78,0,0,1,2.45,1.42,3.28,3.28,0,0,0,1,.92,2.43,2.43,0,0,0,3.11-.36,3,3,0,0,0-.56-5.05,6.57,6.57,0,0,0-3.36-.83,16.11,16.11,0,0,0-10.41,3.43,1,1,0,0,1-1.32.13,15.47,15.47,0,0,0-3.83-1.41,28.89,28.89,0,0,0-13.08,0,17.06,17.06,0,0,0-10.13,6.32c-3.67,4.87-5.28,10.26-4.11,16.34a11.44,11.44,0,0,0,7.1,8.77,21.58,21.58,0,0,0,6.59,1.51c.2,0,.49-.1.58.28l-1.07,1a7.88,7.88,0,0,0-1.86,2.46,5,5,0,0,0,.88,5.82,11.39,11.39,0,0,0,2.06,1.73C361.52,317.55,361.78,317.61,361.87,318Z" transform="translate(-76.33 -219.1)"/><path class="cls-8" d="M517.62,286.48c0-.8.12-1,.88-1.35,1.89-.81,3.78-1.61,5.58-2.59a51.07,51.07,0,0,0,6-3.88c.56-.41,1.14-.8,1.67-1.25a1.3,1.3,0,0,1,1.49-.11,1.08,1.08,0,0,1,.4,1.25c-.2.81-.49,1.59-.75,2.37L530,289.61c-1,2.83-1.92,5.65-2.85,8.49-.49,1.48-.91,3-1.38,4.45a9.36,9.36,0,0,1-.63,1.57c-.37.67-1.12.68-1.75.76a1.11,1.11,0,0,1-1.2-.86c-.55-1.64-1.13-3.26-1.63-4.91s-1-3.58-1.52-5.35c-.34-1.12-.34-2.29-.67-3.4a34,34,0,0,0-.75-3.58A1,1,0,0,1,517.62,286.48Zm12.46-4.83c-1.56.94-2.9,1.89-4.34,2.67a40.33,40.33,0,0,1-4.63,2.25c-.88.34-1,.54-.81,1.48.33,1.81.69,3.62,1.17,5.41s1,3.83,1.61,5.72a3.85,3.85,0,0,0,.66,1.58C525.84,294.41,527.93,288.11,530.08,281.65Z" transform="translate(-76.33 -219.1)"/><path class="cls-6" d="M293.65,252.55c.21,3.5-1.68,5.75-4.37,7.46a6.75,6.75,0,0,1-3.81,1,7.42,7.42,0,0,1-5.49-2.45,6.84,6.84,0,0,1-1.74-4.63,8.18,8.18,0,0,1,4.3-7.37,7.28,7.28,0,0,1,3.66-1.14,7.13,7.13,0,0,1,6.22,3A6,6,0,0,1,293.65,252.55Zm-8.23,6.2a6.2,6.2,0,0,0,6.16-6.27,4.85,4.85,0,0,0-3.4-4.57,6.25,6.25,0,0,0-7.65,4.62A5,5,0,0,0,285.42,258.75Z" transform="translate(-76.33 -219.1)"/><path class="cls-8" d="M429.79,293.25a1.13,1.13,0,0,1-.59,1.05,62.08,62.08,0,0,1-7.47,4.08,3,3,0,0,1-.56.22,1,1,0,0,1-1.42-1.05,3,3,0,0,1,.33-1.24,69.65,69.65,0,0,1,3.22-7,3.48,3.48,0,0,1,.67-1,1,1,0,0,1,1.51,0,2.9,2.9,0,0,1,.43.55,8.82,8.82,0,0,0,2.91,2.79A1.76,1.76,0,0,1,429.79,293.25Zm-4.88-1.95c-.52,1.33-1.21,2.36-1.59,3.65a20.23,20.23,0,0,0,3.37-1.91C426.18,292.4,425.37,292.18,424.91,291.3Z" transform="translate(-76.33 -219.1)"/><path class="cls-2" d="M164,265.32a.77.77,0,0,1,.29-.65l.11.09a.94.94,0,0,1-.09.57Z" transform="translate(-76.33 -219.1)"/><path class="cls-9" d="M611.32,251.87c-.37.16-.48.54-.65.84-3.15,5.37-6.26,10.77-9.44,16.12-5,8.43-10.19,16.74-16,24.66a88.22,88.22,0,0,1-9.78,11.62,24.73,24.73,0,0,1-4.7,3.7,7.78,7.78,0,0,1-3.86,1.22,6.39,6.39,0,0,1-4.7-1.87,13,13,0,0,1-3.13-5.51,37.66,37.66,0,0,1-1.49-7.13c-1-8.11-.66-16.24-.29-24.37.16-3.5.38-7,.37-10.5a5.85,5.85,0,0,0-.09-1.5c-.08.12,0,0-.1,0s-.07,0-.07,0L537.85,318a.92.92,0,0,0,0,.32,13.58,13.58,0,0,0,2.39-.09c1.82-.19,3.65-.34,5.46-.66a2.74,2.74,0,0,1,.5,0c.32,0,.71-.07.84.35s-.15.62-.39.86a2.76,2.76,0,0,1-1.52.69c-3.25.56-6.53.94-9.82,1.21-3.52.28-7.05.46-10.59.48h-.5c-.43,0-.94.07-1.13-.43s.22-.87.57-1.16a2.53,2.53,0,0,1,1.56-.59c2-.06,4-.16,6-.2,1.24,0,2.47-.17,3.7-.19.63,0,.84-.28,1-.83,1.13-4.11,2.45-8.16,3.79-12.2q5.26-15.88,10.58-31.73c3.29-9.85,6.67-19.67,9.8-29.58a5.49,5.49,0,0,1,2.32-3,12.12,12.12,0,0,1,5.79-2,2.64,2.64,0,0,1,.4,0c.9,0,1,.14,1,1.07-.09,3.21-.34,6.4-.62,9.59-.34,3.85-.72,7.7-1.11,11.54-.44,4.42-.93,8.82-1.36,13.23q-.57,6-1,12a107.44,107.44,0,0,0-.43,11.49,29.21,29.21,0,0,0,.42,4.58,6.94,6.94,0,0,0,.76,2.26,1.61,1.61,0,0,0,1.56.88,6.18,6.18,0,0,0,2.75-.81,17.68,17.68,0,0,0,3.62-2.64,65.51,65.51,0,0,0,8.06-9.15c5.08-6.74,9.61-13.85,14-21,5.29-8.56,10.33-17.27,15.58-25.86,1.58-2.59,3.18-5.16,5-7.62.24-.32.5-.62.72-1,1.49-2.2,3.38-2.28,5.46-1.71a3.49,3.49,0,0,1,2.71,4.5,12.51,12.51,0,0,1-.65,2,426.55,426.55,0,0,0-13.68,41.93c-2,7.36-3.82,14.77-5.24,22.26a95.35,95.35,0,0,0-1.86,15.06,26.55,26.55,0,0,0,.46,5.77,6.93,6.93,0,0,1-.1,3.17A3.39,3.39,0,0,1,604,332a2.15,2.15,0,0,1-2.5.76,4.56,4.56,0,0,1-2.63-2.32,13,13,0,0,1-1.22-3.89,45.63,45.63,0,0,1-.35-10.18A171.63,171.63,0,0,1,600.56,293a334.53,334.53,0,0,1,9.1-35.8c.49-1.55,1-3.09,1.54-4.64C611.27,252.35,611.46,252.15,611.32,251.87Z" transform="translate(-76.33 -219.1)"/><path class="cls-5" d="M603.65,269.34c0-.11,0-.23.12-.3a.19.19,0,0,1,0,.08c0,.11,0,.26-.17.2Z" transform="translate(-76.33 -219.1)"/><path class="cls-10" d="M167.72,252.42c-1.1,2.3-2.09,4.4-3.09,6.49l-22.54,47.22c-1.78,3.73-3.57,7.45-5.32,11.18a1,1,0,0,1-1.12.71,25.5,25.5,0,0,0-2.9,0,.82.82,0,0,1-1-.72c-.86-2.87-1.74-5.74-2.61-8.6q-5.25-17.23-10.49-34.47-3-9.89-6-19.77c-.17-.57-.27-1.16-.4-1.75-.25.15-.2.4-.22.63l-1.5,15.32q-.69,7.06-1.41,14.13c-.36,3.58-.75,7.16-1.11,10.74s-.7,7.23-1.06,10.85c-.17,1.75-.36,3.51-.54,5.27a9.94,9.94,0,0,0,.07,3,3.19,3.19,0,0,0,2.18,2.51,12.2,12.2,0,0,0,3.83.63c1.22,0,1.09,0,1,1.11l0,.3c-.08.81-.08.82-.87.82H94.29a1.91,1.91,0,0,1-1.1-.13c0-.39.1-.78.14-1.18.08-.87.08-.87,1-.91a19.91,19.91,0,0,0,3.07-.35c2.59-.55,3.88-1.63,4.3-4.77.45-3.37.7-6.77,1-10.15.36-3.61.74-7.23,1.11-10.84s.69-7.1,1-10.65c.44-4.48.9-8.95,1.35-13.43q.55-5.67,1.1-11.35a9.12,9.12,0,0,0,0-2.39,3.16,3.16,0,0,0-2.27-2.76,14.59,14.59,0,0,0-3.53-.61c-.3,0-.6,0-.9,0s-.49-.14-.43-.5a5.36,5.36,0,0,0,.11-.79c0-.9-.11-.93,1-.93h16.71c1,0,1,0,1.27,1Q124.67,265,130,282.8q3.42,11.38,6.82,22.76c.06.19.15.36.22.54.33,0,.34-.33.44-.52q14.06-29.25,28.1-58.53a1.22,1.22,0,0,1,1.28-.82c5.1,0,10.2,0,15.31,0,1,0,1,0,.88.91-.11,1.27-.11,1.26-1.36,1.33a15.27,15.27,0,0,0-3.73.59,4.29,4.29,0,0,0-3,2.87,11.26,11.26,0,0,0-.54,2.64c-.43,4.34-.84,8.69-1.27,13s-.9,8.76-1.34,13.13c-.36,3.62-.69,7.24-1,10.85s-.76,7.23-1.09,10.85c-.27,2.82-.65,5.62-.77,8.46a6.38,6.38,0,0,0,.12,1.79,3.2,3.2,0,0,0,2.23,2.46,13.46,13.46,0,0,0,4,.63c.87,0,.9,0,.78.93-.22,1.47.16,1.29-1.47,1.29h-20a2.87,2.87,0,0,1-1.15-.1,13.56,13.56,0,0,0,.1-1.44c0-.53.24-.68.73-.68a18.16,18.16,0,0,0,3.28-.34c2.6-.53,3.94-1.56,4.37-4.81s.69-6.76,1-10.14c.36-3.59.75-7.17,1.11-10.75s.69-6.9,1-10.35q.56-5.52,1.1-11,.66-6.72,1.33-13.43A9.85,9.85,0,0,0,167.72,252.42Z" transform="translate(-76.33 -219.1)"/><path class="cls-2" d="M164.31,264.67l.17-.21c.11.12.05.21-.06.3Z" transform="translate(-76.33 -219.1)"/><path class="cls-10" d="M225.28,292a26.25,26.25,0,0,1-3.48,13.58,26.68,26.68,0,0,1-13,11.63,24,24,0,0,1-11.48,1.47,23.13,23.13,0,0,1-7.79-2,15.68,15.68,0,0,1-9.28-11.87c-2.07-11.5,2.17-21.91,11.78-28.47a22.63,22.63,0,0,1,14-3.79,23.19,23.19,0,0,1,10.64,2.72,15.94,15.94,0,0,1,8.21,11.68A28,28,0,0,1,225.28,292Zm-37,5.66c0,4.95.74,8.85,2.8,12.45a11.36,11.36,0,0,0,5.3,5.11,12.36,12.36,0,0,0,13.25-2.58,19.55,19.55,0,0,0,4.2-6,33.57,33.57,0,0,0,2.87-15.87,21,21,0,0,0-3.2-10.28,10.3,10.3,0,0,0-6-4.81,12.16,12.16,0,0,0-11.28,2.32A16.83,16.83,0,0,0,192,283,31.45,31.45,0,0,0,188.26,297.61Z" transform="translate(-76.33 -219.1)"/><path class="cls-9" d="M224.48,276.44a5.17,5.17,0,0,1,.11-1.88c0-.34.3-.38.58-.42l5.85-.73,6.94-.87c.85-.1.85-.1,1.17.67a181.29,181.29,0,0,1,9.44,30.17c.5,2.28,1,4.55,1.29,6.87,0,.14,0,.27.17.31s.25,0,.34-.16a5.61,5.61,0,0,0,.41-.55A144.66,144.66,0,0,0,261,289a36.11,36.11,0,0,0,2.36-9.16,9.38,9.38,0,0,0-.92-5.82c-.2-.34-.14-.56.17-.73a4,4,0,0,1,.81-.39,8.53,8.53,0,0,1,5.49,0,3.77,3.77,0,0,1,2.78,3.62,12.31,12.31,0,0,1-1,5.46,99.93,99.93,0,0,1-5.22,10c-4.91,8.59-10.12,17-15.33,25.41a1.18,1.18,0,0,1-1.2.66,14.72,14.72,0,0,0-2.1,0c-.55,0-.75-.22-.87-.72-1.1-4.35-2.34-8.67-3.6-13a141.53,141.53,0,0,0-10.36-25.59c-.21-.41-.47-.8-.66-1.23a2.41,2.41,0,0,0-2.41-1.43,16,16,0,0,0-2.3.08ZM250,311l.17-.25c0-.14-.06-.26-.2-.26a.25.25,0,0,0-.23.24,3.28,3.28,0,0,0-.55,1.27c-.25.14-.16.39-.19.61l0,.06,0-.08c.23,0,.41-.13.38-.4A2.71,2.71,0,0,0,250,311Z" transform="translate(-76.33 -219.1)"/><path class="cls-11" d="M288.87,272.6c-.44,4.32-.89,8.59-1.32,12.87s-.86,8.62-1.28,12.93c-.36,3.61-.74,7.23-1.09,10.84a26.65,26.65,0,0,0-.18,4c0,.2.05.4.08.6.27,1.38,1.1,1.71,2.2.86a9.11,9.11,0,0,0,1.74-1.93,20.27,20.27,0,0,0,2-3.13,1.09,1.09,0,0,1,1.24-.72c.33,0,.66-.07,1.06.13-.23.44-.45.87-.69,1.3a34.48,34.48,0,0,1-3,4.85,10.32,10.32,0,0,1-3.12,2.76,6.1,6.1,0,0,1-3.16.81,4,4,0,0,1-3.75-2.37,10.77,10.77,0,0,1-1-5.83c.31-3.42.68-6.83,1-10.25q.65-6.51,1.28-13c.21-2.19.45-4.38.66-6.57a9.34,9.34,0,0,0-.1-2.79,1.88,1.88,0,0,0-2-1.8,12.71,12.71,0,0,0-2.89.08c-.53.06-1.06.12-1.59.21s-.47-.12-.43-.45a1.25,1.25,0,0,1,0-.19c.12-.48-.09-1.07.25-1.45s.88-.18,1.34-.24c3.07-.4,6.14-.78,9.22-1.17l2.37-.32A2,2,0,0,1,288.87,272.6Z" transform="translate(-76.33 -219.1)"/><path class="cls-9" d="M461,255.42a45.48,45.48,0,0,1-3.2,16.38,20.37,20.37,0,0,1-4.71,7.11,13.28,13.28,0,0,1-7.06,3.7,9.65,9.65,0,0,1-11.51-8.14,15.27,15.27,0,0,1,.76-7.19,26.26,26.26,0,0,1,2.62-5.48,2.07,2.07,0,0,1,1.33-1,.83.83,0,0,1,.83.21c.25.25.16.55,0,.83s-.44.82-.67,1.23a23.58,23.58,0,0,0-2.89,7.82,10.32,10.32,0,0,0,.24,4.75,7.53,7.53,0,0,0,6.77,5.23,9.89,9.89,0,0,0,7-2.28,17.68,17.68,0,0,0,4.79-5.84,28.69,28.69,0,0,0,3.38-14.72,16.39,16.39,0,0,0-1.17-5.75,7.85,7.85,0,0,0-4.29-4.64,8.09,8.09,0,0,0-4.62-.29,31,31,0,0,0-10.43,4.39,70,70,0,0,0-14.6,12.54,89.78,89.78,0,0,0-13.3,18.81,50.78,50.78,0,0,0-4.79,12.34,23.7,23.7,0,0,0-.61,7.83,10.46,10.46,0,0,0,8.16,9.48,22.37,22.37,0,0,0,14.19-1.11,49.23,49.23,0,0,0,12.34-7.3,62,62,0,0,0,10.61-10.43,18.31,18.31,0,0,0,2.55-4.05,1.69,1.69,0,0,1,1.64-.9.76.76,0,0,1,.68,1.07,3,3,0,0,1-.32.62,61.75,61.75,0,0,1-26.06,23.95,32.28,32.28,0,0,1-10.07,3.1,26.35,26.35,0,0,1-10.61-.48c-5.6-1.58-8.9-5.37-10.26-10.93a28.07,28.07,0,0,1-.54-9.54,57.76,57.76,0,0,1,9-25.38,93,93,0,0,1,17.68-20.82,53,53,0,0,1,15.3-9.68,26.78,26.78,0,0,1,10.42-2,10,10,0,0,1,9.59,6.3A23.17,23.17,0,0,1,461,254C461,254.49,461,255,461,255.42Z" transform="translate(-76.33 -219.1)"/><path class="cls-10" d="M472.78,315.86a6.57,6.57,0,0,0,1.88,0l4.47-.47c.84-.08,1.26.07,1.38.49s-.31,1-.87,1.35a3.2,3.2,0,0,1-1.36.29,183.7,183.7,0,0,1-20.59.33c-.8,0-1.6-.06-2.4-.07a2.28,2.28,0,0,1-1.15-.28.82.82,0,0,1-.09-1.47,3.18,3.18,0,0,1,2.19-.5l5.29.32c1,0,1.94,0,2.9.1.54,0,.76-.19.92-.66.8-2.46,1.64-4.92,2.45-7.39q4.68-14.28,9-28.66l.29-1a6,6,0,0,0-1.84,0c-.63,0-1.26.06-1.89.1-.47,0-.66-.24-.73-.65a1.57,1.57,0,0,1,1.55-1.88c1,0,2-.08,3-.14a.94.94,0,0,0,1-.82q3.15-10.77,6.38-21.53c1.2-4.05,2.37-8.12,3.68-12.14a.91.91,0,0,0,.08-.72,24.53,24.53,0,0,0-3.9.61c-1.8.36-3.58.77-5.36,1.19a3.39,3.39,0,0,1-1.58.08.92.92,0,0,1-.6-1.58,2.62,2.62,0,0,1,1.78-1c2.17-.39,4.33-.79,6.49-1.15,4.34-.72,8.71-1.28,13.09-1.61a89.59,89.59,0,0,1,15.19,0,39.33,39.33,0,0,1,10.8,2.37,19.66,19.66,0,0,1,4.38,2.35,10.36,10.36,0,0,1,4.06,12.08,20.37,20.37,0,0,1-4.27,7.39,39.59,39.59,0,0,1-13.92,10,50,50,0,0,1-11.4,3.57c-.87.16-.88.18-.87,1.08a74.82,74.82,0,0,0,.93,10.35A147.25,147.25,0,0,0,510,312.61a68.44,68.44,0,0,0,4.34,10c.32.58.67,1.15,1,1.71a7.51,7.51,0,0,0,2.29,2.47c.31.2.63.47.5.9s-.57.51-1,.53a3.94,3.94,0,0,1-2-.52,11.42,11.42,0,0,1-3.41-2.89,39.58,39.58,0,0,1-4.83-7.92,164.78,164.78,0,0,1-10.08-26.13,97.77,97.77,0,0,1-3.1-13.42c-.08-.51-.26-.68-.78-.61-1.88.25-3.76.59-5.65.66-1.44,0-1.94.72-2.39,1.95-3,8.32-6.17,16.59-8.87,25C474.88,308.11,473.78,311.91,472.78,315.86Zm14-41.1a1.88,1.88,0,0,0,1.09,0c1.61-.25,3.23-.49,4.82-.81a60.45,60.45,0,0,0,15.1-5.05,35.06,35.06,0,0,0,10.8-7.94,17.86,17.86,0,0,0,3.59-5.84,9.48,9.48,0,0,0-2.89-11,14,14,0,0,0-1.95-1.38,26.48,26.48,0,0,0-10.44-3.14,63.86,63.86,0,0,0-9.38-.21c-.64,0-1.28.12-1.92.18.67.64,1.39,1,2,1.64a1.63,1.63,0,0,1,.44,1.89c-2.78,7.83-5.52,15.68-8.28,23.52C488.77,269.29,487.78,272,486.78,274.76Z" transform="translate(-76.33 -219.1)"/><path class="cls-9" d="M311.68,272.61c-.44,4.41-.87,8.78-1.31,13.24.43-.25.5-.67.65-1a24.58,24.58,0,0,1,5.85-8.27,16.06,16.06,0,0,1,9.68-4.07,18.46,18.46,0,0,1,6.73.63,12.44,12.44,0,0,1,2.9,1.32,7.92,7.92,0,0,1,3.69,5.89,32.36,32.36,0,0,1,.08,8.57l-1.08,10.65c-.29,2.79-.6,5.57-.85,8.36-.15,1.62-.34,3.25-.33,4.88a4.36,4.36,0,0,0,.27,1.57,1,1,0,0,0,1.69.55,6,6,0,0,0,1.59-1.51,19.37,19.37,0,0,0,2.35-3.6,1.38,1.38,0,0,1,1.63-.91,5,5,0,0,0,.66,0c0,.12,0,.2,0,.25a36.68,36.68,0,0,1-3.59,6,8.53,8.53,0,0,1-5.33,3.45c-2.6.45-4.44-.36-5.43-2.91a12,12,0,0,1-.69-5.6c.42-4.31.86-8.62,1.29-12.94.35-3.54.73-7.09,1-10.64a18.1,18.1,0,0,0-.5-6.55,5.37,5.37,0,0,0-5.35-4.26c-4.33-.26-7.57,1.65-10.18,4.92a35.92,35.92,0,0,0-5.13,9.45,81.55,81.55,0,0,0-3,9.71,15.51,15.51,0,0,0-.3,2.37q-.75,7.56-1.48,15.13c0,.47-.14.72-.7.71-1.73,0-3.47,0-5.2,0-.65,0-.67,0-.61-.67l.9-9c.29-2.88.57-5.77.86-8.66.36-3.58.73-7.16,1.08-10.74.28-2.82.56-5.64.82-8.46a9.12,9.12,0,0,0-.09-2.5c-.25-1.37-.74-1.8-2.14-1.92a13,13,0,0,0-2.79.09c-.53.06-1.06.11-1.59.2s-.48-.09-.44-.43a1.38,1.38,0,0,1,0-.2c.12-.48-.09-1.06.25-1.44s.88-.19,1.34-.25c3.07-.4,6.14-.78,9.22-1.17l2.67-.36A1.14,1.14,0,0,1,311.68,272.61Z" transform="translate(-76.33 -219.1)"/><path class="cls-5" d="M313.7,276.57c0,.07-.05.2-.16.12s0-.17,0-.25A1.59,1.59,0,0,1,313.7,276.57Z" transform="translate(-76.33 -219.1)"/><path class="cls-9" d="M361.87,318c-.09-.38-.35-.44-.53-.57a11.39,11.39,0,0,1-2.06-1.73,5,5,0,0,1-.88-5.82,7.88,7.88,0,0,1,1.86-2.46l1.07-1c-.09-.38-.38-.26-.58-.28a21.58,21.58,0,0,1-6.59-1.51,11.44,11.44,0,0,1-7.1-8.77c-1.17-6.08.44-11.47,4.11-16.34a17.06,17.06,0,0,1,10.13-6.32,28.89,28.89,0,0,1,13.08,0,15.47,15.47,0,0,1,3.83,1.41,1,1,0,0,0,1.32-.13A16.11,16.11,0,0,1,389.94,271a6.57,6.57,0,0,1,3.36.83,3,3,0,0,1,.56,5.05,2.43,2.43,0,0,1-3.11.36,3.28,3.28,0,0,1-1-.92,3.78,3.78,0,0,0-2.45-1.42,9.73,9.73,0,0,0-6.11,1c-.11.05-.24.12-.25.28s.11.22.21.31a11.37,11.37,0,0,1,3.77,7.18,19.35,19.35,0,0,1-2.22,12.57,18.84,18.84,0,0,1-15.49,9.91,3.56,3.56,0,0,0-2.79,2.13,1.08,1.08,0,0,0,.26,1.37,6.42,6.42,0,0,0,1.19.9c2.58,1.6,5.28,3,7.92,4.46a46.27,46.27,0,0,1,5.69,3.71,9.29,9.29,0,0,1,3.6,4.91,14.93,14.93,0,0,1,.41,4.85c-.29,4.26-2.52,7.21-6.14,9.21a25,25,0,0,1-8.21,2.71,41.51,41.51,0,0,1-10,.43,44,44,0,0,1-9.73-1.64,11.84,11.84,0,0,1-4.16-2.1,8.17,8.17,0,0,1-3-6.09,9.12,9.12,0,0,1,4.76-8.82,25.5,25.5,0,0,1,7.41-2.89,59.56,59.56,0,0,1,6.49-1.15Zm-7-27a14.59,14.59,0,0,0,2,7.92,8.26,8.26,0,0,0,4.66,3.87,10.61,10.61,0,0,0,8.42-.69,11.27,11.27,0,0,0,4.67-5.06,22,22,0,0,0,2.2-9.26,14.07,14.07,0,0,0-2.37-8.42,8.13,8.13,0,0,0-4.83-3.64c-4.35-1.14-9,.06-11.71,4.28A19.68,19.68,0,0,0,354.9,291Zm9.4,46.8a26.82,26.82,0,0,0,7.32-1,10.93,10.93,0,0,0,4.88-2.6,4.32,4.32,0,0,0,.89-5.14,8.32,8.32,0,0,0-2.4-3,67.82,67.82,0,0,0-9.61-5.87,1.56,1.56,0,0,0-1-.13,43.08,43.08,0,0,0-4.93.73,24.06,24.06,0,0,0-7.27,2.66,7.1,7.1,0,0,0-3.73,6.8,6.21,6.21,0,0,0,2.87,5.19,11.25,11.25,0,0,0,3.08,1.39A34.59,34.59,0,0,0,364.3,337.79Z" transform="translate(-76.33 -219.1)"/><path class="cls-10" d="M285.42,258.75a5,5,0,0,1-4.89-6.22,6.25,6.25,0,0,1,7.65-4.62,4.85,4.85,0,0,1,3.4,4.57A6.2,6.2,0,0,1,285.42,258.75Z" transform="translate(-76.33 -219.1)"/><path class="cls-12" d="M423.32,295" transform="translate(-76.33 -219.1)"/><path class="cls-12" d="M426.69,293" transform="translate(-76.33 -219.1)"/><path class="cls-12" d="M424.91,291.3" transform="translate(-76.33 -219.1)"/><path class="cls-6" d="M188.26,297.61A31.45,31.45,0,0,1,192,283a16.83,16.83,0,0,1,4.15-5.08,12.16,12.16,0,0,1,11.28-2.32,10.3,10.3,0,0,1,6,4.81,21,21,0,0,1,3.2,10.28,33.57,33.57,0,0,1-2.87,15.87,19.55,19.55,0,0,1-4.2,6,12.36,12.36,0,0,1-13.25,2.58,11.36,11.36,0,0,1-5.3-5.11C189,306.46,188.21,302.56,188.26,297.61Zm2.22,1a26.3,26.3,0,0,0,.15,3.19,18.44,18.44,0,0,0,3.5,8.88,8.77,8.77,0,0,0,3.82,2.76,10.2,10.2,0,0,0,3.64.4,8.47,8.47,0,0,0,4.35-1.23,11.23,11.23,0,0,0,3.91-3.63,26.64,26.64,0,0,0,1.84-3.19,24.17,24.17,0,0,0,1.7-4.45,39.69,39.69,0,0,0,1.21-8.25,18.34,18.34,0,0,0-.38-4.55,17.83,17.83,0,0,0-3.08-7.6c-2.41-3.28-5.41-4-9-3.42a10.56,10.56,0,0,0-6.68,4.36,22.65,22.65,0,0,0-3.59,7.29A29,29,0,0,0,190.48,298.58Z" transform="translate(-76.33 -219.1)"/><path class="cls-3" d="M249.23,312a3.28,3.28,0,0,1,.55-1.27l.26.28a2.71,2.71,0,0,1-.63,1.18Z" transform="translate(-76.33 -219.1)"/><path class="cls-4" d="M249.23,312l.18.19c0,.27-.15.37-.38.4v0C249.07,312.34,249,312.09,249.23,312Z" transform="translate(-76.33 -219.1)"/><path class="cls-6" d="M250,311l-.26-.28a.25.25,0,0,1,.23-.24c.14,0,.21.12.2.26a.25.25,0,0,0-.17.25Z" transform="translate(-76.33 -219.1)"/><path class="cls-3" d="M250,311a.25.25,0,0,1,.17-.25Z" transform="translate(-76.33 -219.1)"/><path class="cls-4" d="M249,312.54l0,.08,0-.06Z" transform="translate(-76.33 -219.1)"/><path class="cls-6" d="M486.78,274.76c1-2.77,2-5.47,3-8.19,2.76-7.84,5.5-15.69,8.28-23.52a1.63,1.63,0,0,0-.44-1.89c-.58-.59-1.3-1-2-1.64.64-.06,1.28-.16,1.92-.18a63.86,63.86,0,0,1,9.38.21,26.48,26.48,0,0,1,10.44,3.14,14,14,0,0,1,1.95,1.38,9.48,9.48,0,0,1,2.89,11,17.86,17.86,0,0,1-3.59,5.84,35.06,35.06,0,0,1-10.8,7.94,60.45,60.45,0,0,1-15.1,5.05c-1.59.32-3.21.56-4.82.81A1.88,1.88,0,0,1,486.78,274.76Zm3.4-2.67a1.5,1.5,0,0,0,.41,0c2.53-.63,5.11-1.1,7.62-1.88a64.43,64.43,0,0,0,8.06-3.1,37.3,37.3,0,0,0,5.68-3.29,26.87,26.87,0,0,0,4.8-4.17,14,14,0,0,0,3.8-7.22,6.94,6.94,0,0,0-2.84-6.81,15.94,15.94,0,0,0-4.43-2.43,27.69,27.69,0,0,0-5.89-1.37c-1.24-.18-2.51-.17-3.75-.44a15.68,15.68,0,0,0-3.29-.07,5.34,5.34,0,0,1-.17,2.17c-.58,1.41-1,2.87-1.54,4.31-1.06,3-2.06,6-3.12,8.93-1.36,3.81-2.68,7.64-4,11.47C491.06,269.49,490.52,270.73,490.18,272.09Z" transform="translate(-76.33 -219.1)"/><path class="cls-6" d="M354.9,291A19.68,19.68,0,0,1,358,280c2.73-4.22,7.36-5.42,11.71-4.28a8.13,8.13,0,0,1,4.83,3.64,14.07,14.07,0,0,1,2.37,8.42,22,22,0,0,1-2.2,9.26,11.27,11.27,0,0,1-4.67,5.06,10.61,10.61,0,0,1-8.42.69,8.26,8.26,0,0,1-4.66-3.87A14.59,14.59,0,0,1,354.9,291Zm2.19.06a12.93,12.93,0,0,0,1.25,5.82,6.63,6.63,0,0,0,1.13,1.87,6.89,6.89,0,0,0,3.9,2.22,8,8,0,0,0,6.57-1.47,10.79,10.79,0,0,0,3.12-4.3c1.23-2.52,1.34-5.25,1.73-7.93a1,1,0,0,0,0-.3,15.55,15.55,0,0,0-1.44-5.25,7.85,7.85,0,0,0-2.32-2.94,7.48,7.48,0,0,0-6-1.15,7.69,7.69,0,0,0-4.49,2.57,13.44,13.44,0,0,0-2.16,3.69A18.47,18.47,0,0,0,357.09,291.05Z" transform="translate(-76.33 -219.1)"/><path class="cls-6" d="M364.3,337.79a34.59,34.59,0,0,1-9.87-1,11.25,11.25,0,0,1-3.08-1.39,6.21,6.21,0,0,1-2.87-5.19,7.1,7.1,0,0,1,3.73-6.8,24.06,24.06,0,0,1,7.27-2.66,43.08,43.08,0,0,1,4.93-.73,1.56,1.56,0,0,1,1,.13A67.82,67.82,0,0,1,375,326a8.32,8.32,0,0,1,2.4,3,4.32,4.32,0,0,1-.89,5.14,10.93,10.93,0,0,1-4.88,2.6A26.82,26.82,0,0,1,364.3,337.79Zm-1.24-2.17a31.65,31.65,0,0,0,5.75-.47,14.51,14.51,0,0,0,4.08-1.2,7.78,7.78,0,0,0,1.93-1.22,2.17,2.17,0,0,0,.54-2.77,7.16,7.16,0,0,0-2.62-2.94c-2.19-1.51-4.52-2.79-6.82-4.14a3.66,3.66,0,0,0-2.36-.56c-.82.09-1.66.13-2.47.3a30.3,30.3,0,0,0-6.63,2.05c-2,.93-3.51,2.29-3.8,4.62a4.33,4.33,0,0,0,.95,3.35,7.41,7.41,0,0,0,4.32,2.28A32.73,32.73,0,0,0,363.06,335.62Z" transform="translate(-76.33 -219.1)"/><path class="cls-5" d="M190.48,298.58a29,29,0,0,1,1.35-9.44,22.65,22.65,0,0,1,3.59-7.29,10.56,10.56,0,0,1,6.68-4.36c3.63-.62,6.63.14,9,3.42a17.83,17.83,0,0,1,3.08,7.6,18.34,18.34,0,0,1,.38,4.55,39.69,39.69,0,0,1-1.21,8.25,24.17,24.17,0,0,1-1.7,4.45,26.64,26.64,0,0,1-1.84,3.19,11.23,11.23,0,0,1-3.91,3.63,8.47,8.47,0,0,1-4.35,1.23,10.2,10.2,0,0,1-3.64-.4,8.77,8.77,0,0,1-3.82-2.76,18.44,18.44,0,0,1-3.5-8.88A26.3,26.3,0,0,1,190.48,298.58Z" transform="translate(-76.33 -219.1)"/><path class="cls-5" d="M490.18,272.09c.34-1.36.88-2.6,1.33-3.87,1.33-3.83,2.65-7.66,4-11.47,1.06-3,2.06-6,3.12-8.93.51-1.44,1-2.9,1.54-4.31a5.34,5.34,0,0,0,.17-2.17,15.68,15.68,0,0,1,3.29.07c1.24.27,2.51.26,3.75.44a27.69,27.69,0,0,1,5.89,1.37,15.94,15.94,0,0,1,4.43,2.43,6.94,6.94,0,0,1,2.84,6.81,14,14,0,0,1-3.8,7.22,26.87,26.87,0,0,1-4.8,4.17,37.3,37.3,0,0,1-5.68,3.29,64.43,64.43,0,0,1-8.06,3.1c-2.51.78-5.09,1.25-7.62,1.88A1.5,1.5,0,0,1,490.18,272.09Z" transform="translate(-76.33 -219.1)"/><path class="cls-5" d="M357.09,291.05a18.47,18.47,0,0,1,1.3-7.17,13.44,13.44,0,0,1,2.16-3.69,7.69,7.69,0,0,1,4.49-2.57,7.48,7.48,0,0,1,6,1.15,7.85,7.85,0,0,1,2.32,2.94,15.55,15.55,0,0,1,1.44,5.25,1,1,0,0,1,0,.3c-.39,2.68-.5,5.41-1.73,7.93a10.79,10.79,0,0,1-3.12,4.3,8,8,0,0,1-6.57,1.47,6.89,6.89,0,0,1-3.9-2.22,6.63,6.63,0,0,1-1.13-1.87A12.93,12.93,0,0,1,357.09,291.05Z" transform="translate(-76.33 -219.1)"/><path class="cls-5" d="M363.06,335.62a32.73,32.73,0,0,1-7.13-.7,7.41,7.41,0,0,1-4.32-2.28,4.33,4.33,0,0,1-.95-3.35c.29-2.33,1.78-3.69,3.8-4.62a30.3,30.3,0,0,1,6.63-2.05c.81-.17,1.65-.21,2.47-.3a3.66,3.66,0,0,1,2.36.56c2.3,1.35,4.63,2.63,6.82,4.14a7.16,7.16,0,0,1,2.62,2.94,2.17,2.17,0,0,1-.54,2.77,7.78,7.78,0,0,1-1.93,1.22,14.51,14.51,0,0,1-4.08,1.2A31.65,31.65,0,0,1,363.06,335.62Z" transform="translate(-76.33 -219.1)"/></svg>